<svg width="527" height="261" viewBox="0 0 527 261" fill="none" xmlns="http://www.w3.org/2000/svg">
<path d="M308.5 7L345.5 76V257.5M209.5 201H265L314 173H375L465.5 121V81.5" stroke="#020000" stroke-width="5"/>
<path d="M2 240.5H399" stroke="#020000" stroke-width="3" stroke-linecap="round" stroke-dasharray="1 5"/>
<path d="M323.465 14.0935C323.179 14.2556 322.953 14.4028 322.789 14.5353C322.633 14.6636 322.529 14.7969 322.478 14.9353C322.438 15.0771 322.445 15.2378 322.496 15.4176C322.552 15.6049 322.651 15.8327 322.793 16.1011L322.363 16.3441L320.291 12.6771L320.721 12.434C320.878 12.6939 321.02 12.8923 321.147 13.0295C321.278 13.1742 321.415 13.2662 321.557 13.3056C321.699 13.3449 321.861 13.3328 322.044 13.2692C322.227 13.2056 322.451 13.0991 322.715 12.9499L325.171 11.5621L322.58 6.9783L320.204 8.32137C319.917 8.4834 319.692 8.63066 319.528 8.76317C319.371 8.89142 319.267 9.02476 319.216 9.16318C319.177 9.30489 319.183 9.46563 319.235 9.6454C319.291 9.83272 319.39 10.0606 319.531 10.3289L319.101 10.5719L317.029 6.90491L317.459 6.66188C317.616 6.9217 317.758 7.12018 317.885 7.25731C318.017 7.40199 318.153 7.49402 318.295 7.5334C318.437 7.57278 318.599 7.56066 318.782 7.49703C318.965 7.43341 319.189 7.32699 319.453 7.17776L324.727 4.1974C324.991 4.04817 325.194 3.9137 325.335 3.79398C325.488 3.67754 325.587 3.55224 325.631 3.41808C325.686 3.2872 325.686 3.13777 325.631 2.96981C325.584 2.79759 325.499 2.58649 325.378 2.33651L325.808 2.09348L327.752 5.53414L327.322 5.77717C327.178 5.53998 327.045 5.3566 326.922 5.22701C326.803 5.10497 326.671 5.03016 326.526 5.00259C326.385 4.98257 326.22 5.0065 326.029 5.07438C325.843 5.14981 325.606 5.26854 325.319 5.43056L323.146 6.65852L325.737 11.2423L327.989 9.96957C328.253 9.82033 328.456 9.68586 328.597 9.56614C328.75 9.4497 328.849 9.3244 328.892 9.19024C328.948 9.05936 328.948 8.90993 328.893 8.74197C328.845 8.56975 328.761 8.35865 328.64 8.10867L329.07 7.86564L331.014 11.3063L330.584 11.5493C330.44 11.3121 330.306 11.1288 330.183 10.9992C330.065 10.8771 329.933 10.8023 329.788 10.7748C329.647 10.7547 329.481 10.7787 329.291 10.8465C329.104 10.922 328.868 11.0407 328.581 11.2027L323.465 14.0935ZM325.914 18.4261C325.619 18.5924 325.388 18.738 325.22 18.863C325.063 18.9912 324.954 19.1229 324.891 19.2581C324.835 19.3889 324.827 19.533 324.866 19.6901C324.905 19.8472 324.985 20.0411 325.105 20.2717L324.709 20.4956L322.873 17.2473L323.27 17.0235C323.405 17.2456 323.532 17.4176 323.651 17.5397C323.777 17.6575 323.907 17.7285 324.04 17.7528C324.185 17.7803 324.347 17.7586 324.526 17.6874C324.716 17.6195 324.944 17.5109 325.208 17.3617L326.656 16.5431C327.094 16.2958 327.448 16.0857 327.719 15.9129C328.001 15.7433 328.187 15.6136 328.275 15.5237C328.428 15.3879 328.496 15.235 328.479 15.0651C328.47 14.8909 328.359 14.6152 328.146 14.2379L328.542 14.0141L330.226 15.9894L325.914 18.4261ZM331.788 13.3895C331.984 13.2786 332.188 13.2528 332.401 13.3118C332.614 13.3709 332.775 13.4985 332.886 13.6947C332.997 13.8909 333.023 14.0952 332.964 14.3078C332.905 14.5204 332.777 14.6821 332.581 14.7929C332.385 14.9038 332.18 14.9297 331.968 14.8706C331.755 14.8115 331.594 14.6839 331.483 14.4877C331.372 14.2916 331.346 14.0872 331.405 13.8746C331.464 13.6621 331.592 13.5004 331.788 13.3895ZM329.021 22.446C329.201 22.7629 329.482 22.9271 329.867 22.9386C330.256 22.9577 330.711 22.8201 331.232 22.5259C331.745 22.236 332.09 21.9216 332.267 21.5827C332.455 21.2472 332.458 20.9172 332.275 20.5927C332.091 20.2683 331.801 20.089 331.403 20.0548C331.01 20.0282 330.564 20.1556 330.066 20.437C329.568 20.7184 329.224 21.0425 329.033 21.4092C328.842 21.7759 328.838 22.1215 329.021 22.446ZM327.345 22.5718C327.433 22.7614 327.511 22.9359 327.582 23.0953C327.652 23.2548 327.72 23.4104 327.786 23.5623C327.856 23.7218 327.92 23.8795 327.979 24.0357C328.041 24.1994 328.11 24.3744 328.186 24.5607C328.41 25.1509 328.444 25.7041 328.287 26.2205C328.143 26.7401 327.818 27.1427 327.313 27.4284C326.679 27.7865 326.053 27.8066 325.435 27.4887C324.822 27.1783 324.247 26.5478 323.709 25.5971C323.471 25.1745 323.289 24.7646 323.164 24.3674C323.043 23.9776 322.984 23.6178 322.987 23.2878C322.982 22.962 323.037 22.672 323.152 22.4178C323.272 22.1711 323.448 21.9817 323.682 21.8495C323.841 21.76 324.003 21.7033 324.168 21.6793C324.334 21.6554 324.495 21.6589 324.652 21.6897C324.801 21.7248 324.94 21.7857 325.069 21.8723C325.202 21.9665 325.306 22.0815 325.383 22.2173C325.528 22.4738 325.579 22.7487 325.536 23.042C325.375 22.8638 325.172 22.7597 324.926 22.7295C324.672 22.7035 324.432 22.7545 324.206 22.8824C323.874 23.07 323.709 23.3772 323.712 23.804C323.718 24.2383 323.892 24.7573 324.233 25.3609C324.962 26.6512 325.723 27.0724 326.515 26.6248C326.817 26.4542 327.012 26.2095 327.101 25.8907C327.182 25.5761 327.162 25.2685 327.042 24.9681C326.962 24.7742 326.882 24.5706 326.802 24.3574C326.718 24.156 326.634 23.9545 326.55 23.7531C326.47 23.5592 326.393 23.3788 326.318 23.2118C326.244 23.0448 326.187 22.9081 326.146 22.8014C325.953 22.3533 325.885 21.9687 325.942 21.6475C326 21.3264 326.187 21.0763 326.504 20.8972C326.768 20.748 327.064 20.7252 327.391 20.8289C327.718 20.9326 328.002 21.1355 328.243 21.4377L328.288 21.4121C328.262 21.2077 328.269 20.9997 328.309 20.7882C328.356 20.5723 328.429 20.3668 328.528 20.1716C328.631 19.984 328.756 19.8088 328.903 19.6461C329.057 19.4792 329.233 19.3403 329.429 19.2294C329.715 19.0674 330.009 18.971 330.31 18.9402C330.616 18.9169 330.911 18.9544 331.195 19.0525C331.491 19.1539 331.765 19.3127 332.017 19.5289C332.276 19.7408 332.497 20.009 332.681 20.3334C332.868 20.6654 332.992 21.0084 333.053 21.3624C333.121 21.7121 333.117 22.048 333.04 22.3701C333.396 22.5073 333.675 22.6483 333.877 22.7934C334.085 22.9341 334.239 23.0913 334.337 23.2648C334.491 23.5364 334.548 23.7877 334.509 24.0186C334.482 24.2529 334.363 24.4297 334.152 24.549C334.024 24.6215 333.896 24.6338 333.77 24.5859C333.647 24.5455 333.55 24.4612 333.477 24.333C333.418 24.2273 333.387 24.1299 333.387 24.0407C333.386 23.9514 333.388 23.866 333.391 23.7843C333.407 23.7059 333.416 23.6259 333.42 23.5442C333.423 23.4625 333.4 23.3764 333.349 23.2859C333.246 23.1048 333.078 22.9561 332.843 22.84C332.666 23.1788 332.366 23.4676 331.944 23.7064C331.302 24.0688 330.684 24.1546 330.088 23.9636C329.5 23.7683 328.95 23.2879 328.437 22.5222C328.14 22.0832 327.909 21.7903 327.747 21.6433C327.584 21.4963 327.423 21.4676 327.265 21.5571C327.144 21.6254 327.092 21.7444 327.108 21.9144C327.132 22.08 327.211 22.2992 327.345 22.5718ZM331.794 28.8324C331.485 29.0073 331.244 29.1534 331.071 29.2708C330.899 29.3882 330.78 29.5048 330.716 29.6206C330.664 29.7397 330.657 29.8681 330.695 30.0059C330.733 30.1437 330.807 30.3262 330.915 30.5536L330.519 30.7774L328.818 27.7668L329.214 27.543C329.353 27.7533 329.473 27.914 329.576 28.0252C329.679 28.1365 329.794 28.2004 329.923 28.2172C330.052 28.2339 330.204 28.2029 330.379 28.1242C330.565 28.0488 330.801 27.9301 331.088 27.768L335.83 25.0883C336.276 24.8367 336.626 24.6288 336.881 24.4645C337.141 24.3077 337.331 24.1758 337.449 24.0689C337.531 24.0027 337.588 23.9357 337.62 23.8682C337.663 23.8039 337.68 23.7292 337.672 23.6443C337.672 23.5551 337.647 23.4496 337.598 23.3279C337.549 23.2062 337.478 23.0623 337.384 22.8963L337.769 22.6789L339.376 24.5183L335.064 26.9551L335.089 27.0003C335.304 27.0283 335.519 27.0911 335.733 27.1889C335.96 27.2899 336.173 27.413 336.375 27.558C336.576 27.703 336.763 27.8662 336.935 28.0476C337.112 28.2366 337.257 28.4329 337.373 28.6367C337.569 28.9838 337.687 29.3348 337.729 29.6897C337.774 30.0522 337.74 30.3702 337.626 30.6438C337.525 30.8701 337.348 31.0945 337.095 31.3169C336.85 31.535 336.486 31.7805 336.003 32.0534L334.192 33.0767C333.883 33.2515 333.642 33.3976 333.47 33.515C333.305 33.6282 333.19 33.7427 333.126 33.8584C333.066 33.9818 333.056 34.1123 333.094 34.2501C333.132 34.3879 333.205 34.5705 333.314 34.7978L332.917 35.0216L331.223 32.0224L331.619 31.7985C331.746 32.0055 331.86 32.1647 331.963 32.2759C332.073 32.3828 332.191 32.4409 332.315 32.4501C332.444 32.4668 332.596 32.4359 332.771 32.3571C332.957 32.2817 333.193 32.163 333.48 32.001L334.906 31.1951C335.751 30.7176 336.296 30.2805 336.539 29.8839C336.791 29.4831 336.786 29.0526 336.526 28.5923C336.326 28.2377 336.052 27.9644 335.705 27.7724C335.362 27.5881 334.985 27.5024 334.574 27.5155C334.47 27.5247 334.371 27.5355 334.279 27.5479C334.198 27.5637 334.108 27.5896 334.009 27.6256C333.91 27.6617 333.798 27.7101 333.673 27.7708C333.56 27.8347 333.416 27.9157 333.243 28.0138L331.794 28.8324ZM334.607 38.2766L334.371 37.8579L338.248 33.726C338.421 33.5387 338.554 33.3786 338.648 33.2458C338.742 33.1129 338.804 32.9837 338.832 32.858C338.861 32.7324 338.854 32.6066 338.813 32.4806C338.779 32.3504 338.716 32.2023 338.622 32.0363L339.018 31.8124L340.713 34.8117L340.317 35.0355C340.15 34.7413 339.999 34.553 339.863 34.4706C339.727 34.3883 339.576 34.394 339.41 34.4878C339.334 34.5304 339.25 34.5929 339.157 34.6752C339.072 34.7533 338.965 34.8538 338.835 34.9768L336.565 37.275L336.59 37.3203L341.73 36.6113L341.928 36.9621L338.58 40.8402L338.605 40.8854L340.822 40.5284C341.123 40.4783 341.373 40.4365 341.573 40.403C341.78 40.3653 341.949 40.3296 342.08 40.2958C342.222 40.2653 342.335 40.2363 342.419 40.2088C342.503 40.1812 342.579 40.1483 342.646 40.1099C342.812 40.0161 342.894 39.9052 342.892 39.7773C342.889 39.6493 342.8 39.4307 342.625 39.1213L343.022 38.8975L344.301 41.1611L343.905 41.3849C343.841 41.2717 343.766 41.1843 343.682 41.1226C343.609 41.0642 343.5 41.0213 343.355 40.9937C343.214 40.9737 343.03 40.9733 342.802 40.9926C342.574 41.012 342.279 41.0444 341.916 41.09L336.59 41.7852L336.353 41.3665L339.749 37.6257L339.724 37.5804L334.607 38.2766ZM343.909 46.6506C343.5 46.3143 343.131 46.04 342.802 45.8278C342.477 45.623 342.184 45.4749 341.923 45.3833C341.662 45.2918 341.429 45.2493 341.224 45.2558C341.023 45.2699 340.839 45.3239 340.673 45.4177C340.424 45.5584 340.268 45.7565 340.203 46.012C340.138 46.2676 340.183 46.5311 340.336 46.8028C340.447 46.9989 340.598 47.1523 340.79 47.2629C340.987 47.381 341.204 47.4573 341.442 47.4918C341.688 47.522 341.946 47.5108 342.215 47.4584C342.491 47.4017 342.758 47.3008 343.014 47.1558L343.909 46.6506ZM344.395 46.3756L344.859 46.1134C345.78 45.5932 346.018 44.9407 345.575 44.156C345.502 44.0278 345.429 43.9247 345.356 43.847C345.282 43.7692 345.201 43.7151 345.114 43.6846C345.028 43.6541 344.92 43.6401 344.792 43.6427C344.668 43.6529 344.522 43.6758 344.353 43.7116C344.088 43.7522 343.893 43.7524 343.771 43.712C343.661 43.6749 343.563 43.5809 343.477 43.43C343.264 43.0528 343.346 42.7575 343.724 42.5444C344.086 42.3397 344.474 42.3743 344.887 42.6483C345.308 42.918 345.719 43.4075 346.12 44.1167C346.547 44.8713 346.713 45.4837 346.621 45.9541C346.536 46.4202 346.173 46.8345 345.531 47.1969L342.996 48.6296C342.136 49.1156 341.802 49.5284 341.994 49.868C342.053 49.9736 342.122 50.0691 342.2 50.1544C342.286 50.2354 342.405 50.2779 342.556 50.2818L342.374 50.5938C342.149 50.6013 341.908 50.5185 341.651 50.3452C341.402 50.1677 341.202 49.9469 341.053 49.6829C340.865 49.3509 340.83 49.0422 340.948 48.7568C341.069 48.479 341.323 48.2313 341.707 48.0139L341.676 47.9573C341.195 47.97 340.747 47.8647 340.332 47.6412C339.925 47.4135 339.602 47.0884 339.363 46.6659C339.094 46.1905 339.004 45.7488 339.092 45.3407C339.18 44.9327 339.428 44.6135 339.835 44.3833C340.016 44.2809 340.207 44.2131 340.407 44.1796C340.611 44.1537 340.829 44.1698 341.061 44.2279C341.293 44.286 341.547 44.3915 341.822 44.5444C342.106 44.693 342.418 44.8945 342.761 45.1487L344.395 46.3756ZM341.751 54.8019C340.777 54.894 340.084 54.5741 339.67 53.8422C339.402 53.3668 339.445 53.0289 339.799 52.8286C339.988 52.722 340.164 52.7072 340.327 52.7843C340.487 52.8732 340.697 53.078 340.958 53.3985C341.07 53.5441 341.18 53.6608 341.29 53.7484C341.391 53.8402 341.502 53.9122 341.621 53.9644C341.732 54.0208 341.856 54.0553 341.993 54.0678C342.133 54.0878 342.295 54.0913 342.476 54.0782L343.493 54.0266L346.984 49.1866C347.14 48.9691 347.257 48.7885 347.335 48.6449C347.425 48.5045 347.48 48.3736 347.501 48.2522C347.534 48.1341 347.534 48.0196 347.501 47.9088C347.476 47.7936 347.428 47.6563 347.358 47.4969L347.754 47.273L349.449 50.2723L349.053 50.4961C348.767 49.9906 348.5 49.8082 348.251 49.9489C348.153 50.0043 348.015 50.1219 347.838 50.3017C347.661 50.4814 347.489 50.6784 347.321 50.8926L345.014 53.8388L345.046 53.8954L348.175 53.4863C348.479 53.4437 348.727 53.4078 348.92 53.3786C349.117 53.357 349.273 53.3335 349.388 53.3083C349.515 53.2863 349.614 53.2599 349.687 53.2291C349.763 53.2058 349.831 53.1771 349.892 53.143C350.088 53.0322 350.188 52.9009 350.192 52.7494C350.2 52.6054 350.117 52.3787 349.942 52.0693L350.338 51.8455L351.745 54.3355L351.349 54.5593C351.268 54.4159 351.181 54.3059 351.088 54.2291C350.995 54.1523 350.85 54.0995 350.655 54.0706C350.471 54.045 350.219 54.0384 349.897 54.0509C349.58 54.0708 349.159 54.1097 348.634 54.1673L341.751 54.8019ZM349.82 62.3443L351.093 64.5966C351.195 64.7777 351.3 64.9276 351.407 65.0464C351.521 65.1609 351.658 65.2432 351.815 65.2934C351.973 65.3436 352.158 65.3633 352.371 65.3525C352.592 65.3375 352.858 65.2968 353.168 65.2306L353.405 65.6493L350.751 66.5815L347.777 61.3187L348.151 61.1076C349.407 61.5329 350.477 61.8589 351.361 62.0856C352.258 62.3157 353.026 62.4591 353.665 62.5159C354.305 62.5728 354.851 62.5528 355.304 62.4561C355.764 62.3551 356.195 62.1916 356.595 61.9656C357.183 61.6331 357.568 61.2312 357.75 60.7602C357.936 60.2967 357.895 59.8273 357.626 59.3519C357.37 58.8992 357.014 58.6126 356.558 58.4922C356.106 58.3793 355.646 58.455 355.178 58.7194C354.771 58.9496 354.508 59.2424 354.39 59.5976C354.277 59.9604 354.329 60.3342 354.546 60.719C354.344 60.7836 354.141 60.7687 353.939 60.6742C353.743 60.5754 353.58 60.4091 353.448 60.1752C353.328 59.9639 353.259 59.7443 353.239 59.5163C353.224 59.2959 353.254 59.0751 353.328 58.854C353.406 58.6405 353.526 58.4384 353.687 58.2478C353.86 58.0605 354.071 57.8965 354.32 57.7558C354.66 57.564 355.013 57.4587 355.381 57.44C355.749 57.4214 356.105 57.479 356.449 57.6129C356.801 57.7425 357.134 57.9429 357.446 58.2143C357.763 58.4931 358.034 58.8325 358.26 59.2324C358.486 59.6323 358.633 60.0324 358.7 60.4326C358.767 60.8328 358.759 61.2155 358.676 61.5806C358.594 61.9456 358.438 62.2776 358.209 62.5764C357.991 62.8785 357.702 63.1319 357.339 63.3366C356.872 63.6009 356.352 63.7554 355.779 63.7999C355.219 63.8478 354.618 63.8142 353.976 63.6994C353.341 63.5802 352.676 63.3986 351.98 63.1545C351.293 62.9061 350.589 62.6216 349.871 62.301L349.82 62.3443Z" fill="#C26036"/>
<path d="M395.645 146.832C395.815 147.114 395.968 147.336 396.104 147.496C396.236 147.649 396.372 147.75 396.512 147.797C396.655 147.833 396.815 147.823 396.994 147.767C397.179 147.706 397.405 147.601 397.669 147.453L397.923 147.876L394.31 150.041L394.056 149.618C394.312 149.454 394.507 149.307 394.641 149.177C394.782 149.041 394.871 148.902 394.906 148.76C394.942 148.617 394.926 148.455 394.858 148.274C394.789 148.092 394.677 147.872 394.521 147.611L393.071 145.192L388.555 147.898L389.958 150.24C390.128 150.522 390.281 150.744 390.417 150.904C390.549 151.057 390.685 151.158 390.825 151.206C390.968 151.241 391.128 151.231 391.307 151.175C391.492 151.114 391.718 151.009 391.982 150.861L392.236 151.284L388.623 153.449L388.369 153.026C388.625 152.862 388.82 152.715 388.954 152.585C389.095 152.449 389.184 152.31 389.219 152.168C389.255 152.025 389.239 151.863 389.17 151.682C389.102 151.5 388.99 151.28 388.834 151.019L385.72 145.823C385.564 145.563 385.425 145.364 385.301 145.225C385.181 145.075 385.053 144.98 384.918 144.94C384.786 144.888 384.636 144.891 384.47 144.951C384.299 145.003 384.09 145.092 383.843 145.22L383.589 144.796L386.979 142.765L387.233 143.189C387 143.339 386.82 143.477 386.693 143.603C386.574 143.725 386.503 143.859 386.479 144.004C386.463 144.145 386.491 144.31 386.564 144.499C386.644 144.684 386.769 144.917 386.938 145.199L388.221 147.34L392.737 144.634L391.407 142.415C391.251 142.155 391.112 141.956 390.988 141.817C390.868 141.667 390.74 141.572 390.605 141.532C390.473 141.48 390.323 141.483 390.157 141.543C389.986 141.595 389.777 141.684 389.53 141.812L389.276 141.388L392.666 139.357L392.92 139.781C392.687 139.931 392.507 140.069 392.38 140.195C392.261 140.317 392.19 140.45 392.166 140.596C392.15 140.737 392.178 140.902 392.251 141.091C392.331 141.275 392.456 141.509 392.625 141.791L395.645 146.832ZM399.914 144.274C400.088 144.564 400.239 144.791 400.368 144.956C400.501 145.109 400.635 145.216 400.772 145.275C400.904 145.327 401.048 145.332 401.204 145.289C401.36 145.246 401.552 145.161 401.78 145.035L402.014 145.425L398.813 147.343L398.579 146.953C398.798 146.812 398.967 146.68 399.086 146.558C399.2 146.429 399.268 146.298 399.289 146.164C399.313 146.018 399.287 145.857 399.211 145.68C399.138 145.491 399.024 145.267 398.868 145.007L398.013 143.579C397.754 143.148 397.535 142.799 397.355 142.533C397.179 142.255 397.044 142.073 396.952 141.987C396.813 141.838 396.658 141.774 396.489 141.795C396.315 141.808 396.042 141.926 395.67 142.149L395.436 141.759L397.368 140.025L399.914 144.274ZM394.729 138.53C394.613 138.337 394.582 138.133 394.636 137.919C394.689 137.705 394.813 137.54 395.006 137.424C395.199 137.308 395.403 137.277 395.617 137.331C395.831 137.385 395.996 137.508 396.112 137.701C396.228 137.895 396.259 138.098 396.205 138.312C396.151 138.526 396.028 138.691 395.835 138.807C395.641 138.923 395.438 138.954 395.224 138.9C395.01 138.847 394.845 138.723 394.729 138.53ZM403.853 141.064C404.165 140.877 404.322 140.591 404.324 140.206C404.333 139.817 404.184 139.366 403.877 138.853C403.574 138.347 403.251 138.01 402.907 137.842C402.567 137.662 402.237 137.668 401.917 137.859C401.598 138.051 401.426 138.346 401.402 138.744C401.385 139.138 401.524 139.58 401.818 140.071C402.112 140.562 402.445 140.898 402.816 141.079C403.188 141.261 403.534 141.256 403.853 141.064ZM404.022 142.736C404.209 142.644 404.381 142.561 404.539 142.487C404.697 142.413 404.851 142.341 405.001 142.271C405.158 142.197 405.314 142.128 405.469 142.066C405.631 141.999 405.804 141.926 405.989 141.846C406.573 141.607 407.125 141.559 407.645 141.702C408.168 141.833 408.579 142.147 408.878 142.645C409.252 143.27 409.288 143.895 408.986 144.52C408.691 145.142 408.076 145.733 407.139 146.294C406.723 146.544 406.317 146.736 405.923 146.871C405.537 147.002 405.179 147.07 404.849 147.075C404.523 147.089 404.232 147.041 403.975 146.932C403.725 146.819 403.531 146.647 403.393 146.417C403.3 146.261 403.239 146.1 403.211 145.935C403.183 145.77 403.182 145.609 403.209 145.452C403.24 145.301 403.297 145.161 403.381 145.03C403.471 144.895 403.584 144.787 403.717 144.707C403.97 144.556 404.244 144.498 404.538 144.534C404.364 144.699 404.265 144.904 404.241 145.151C404.222 145.405 404.279 145.644 404.412 145.867C404.608 146.194 404.92 146.351 405.346 146.338C405.78 146.32 406.295 146.133 406.889 145.777C408.161 145.015 408.562 144.244 408.095 143.463C407.916 143.166 407.667 142.977 407.346 142.897C407.029 142.824 406.722 142.851 406.425 142.979C406.233 143.063 406.032 143.148 405.821 143.235C405.621 143.324 405.422 143.413 405.223 143.502C405.031 143.586 404.853 143.668 404.688 143.747C404.523 143.825 404.387 143.886 404.282 143.929C403.839 144.134 403.456 144.212 403.134 144.163C402.811 144.114 402.556 143.933 402.369 143.621C402.213 143.36 402.183 143.065 402.278 142.735C402.374 142.406 402.569 142.117 402.865 141.869L402.838 141.824C402.635 141.855 402.427 141.853 402.214 141.819C401.997 141.777 401.79 141.71 401.592 141.616C401.402 141.518 401.224 141.397 401.057 141.254C400.886 141.104 400.743 140.932 400.627 140.739C400.458 140.457 400.354 140.165 400.316 139.865C400.285 139.56 400.314 139.265 400.405 138.978C400.499 138.679 400.651 138.401 400.861 138.144C401.066 137.88 401.328 137.652 401.648 137.46C401.975 137.264 402.315 137.131 402.667 137.062C403.015 136.985 403.351 136.98 403.675 137.049C403.803 136.689 403.937 136.407 404.077 136.202C404.212 135.989 404.365 135.832 404.536 135.729C404.804 135.569 405.053 135.505 405.285 135.538C405.52 135.559 405.7 135.674 405.825 135.882C405.9 136.008 405.916 136.135 405.871 136.263C405.834 136.386 405.752 136.486 405.626 136.562C405.522 136.624 405.425 136.657 405.336 136.66C405.247 136.662 405.161 136.663 405.08 136.662C405.001 136.648 404.921 136.641 404.839 136.639C404.757 136.638 404.672 136.664 404.582 136.717C404.404 136.824 404.26 136.996 404.15 137.234C404.493 137.402 404.789 137.694 405.039 138.111C405.417 138.743 405.519 139.359 405.343 139.959C405.163 140.552 404.697 141.114 403.944 141.646C403.513 141.955 403.226 142.193 403.083 142.359C402.941 142.526 402.916 142.687 403.009 142.843C403.081 142.962 403.201 143.011 403.371 142.99C403.536 142.962 403.753 142.877 404.022 142.736ZM410.167 138.129C410.349 138.434 410.502 138.671 410.623 138.841C410.745 139.01 410.865 139.126 410.982 139.187C411.103 139.236 411.231 139.24 411.368 139.198C411.505 139.156 411.685 139.078 411.91 138.964L412.144 139.354L409.178 141.132L408.944 140.742C409.15 140.598 409.308 140.473 409.416 140.367C409.525 140.262 409.586 140.145 409.599 140.015C409.613 139.886 409.578 139.735 409.495 139.563C409.415 139.378 409.29 139.145 409.121 138.862L406.321 134.19C406.058 133.751 405.841 133.407 405.67 133.155C405.507 132.899 405.37 132.714 405.26 132.598C405.192 132.517 405.124 132.462 405.055 132.433C404.99 132.391 404.915 132.375 404.83 132.386C404.741 132.389 404.636 132.416 404.516 132.468C404.395 132.52 404.253 132.595 404.09 132.693L403.863 132.314L405.661 130.66L408.207 134.909L408.251 134.882C408.274 134.667 408.331 134.451 408.423 134.234C408.518 134.005 408.636 133.788 408.776 133.583C408.916 133.378 409.074 133.187 409.251 133.01C409.435 132.829 409.628 132.678 409.829 132.558C410.171 132.353 410.519 132.225 410.872 132.175C411.233 132.12 411.552 132.146 411.829 132.253C412.058 132.349 412.286 132.52 412.515 132.767C412.739 133.006 412.994 133.364 413.279 133.839L414.348 135.623C414.531 135.928 414.683 136.165 414.805 136.335C414.922 136.497 415.04 136.609 415.157 136.67C415.282 136.726 415.413 136.734 415.55 136.692C415.686 136.651 415.867 136.573 416.091 136.458L416.325 136.849L413.37 138.619L413.136 138.229C413.34 138.097 413.496 137.978 413.605 137.873C413.709 137.76 413.764 137.641 413.77 137.516C413.783 137.387 413.749 137.236 413.665 137.063C413.585 136.879 413.461 136.646 413.291 136.363L412.449 134.958C411.95 134.125 411.499 133.592 411.097 133.359C410.69 133.118 410.259 133.133 409.806 133.405C409.457 133.614 409.19 133.895 409.007 134.247C408.832 134.595 408.756 134.974 408.779 135.384C408.791 135.488 408.804 135.586 408.819 135.678C408.837 135.759 408.865 135.848 408.904 135.946C408.942 136.044 408.994 136.155 409.058 136.278C409.124 136.39 409.209 136.531 409.311 136.702L410.167 138.129ZM419.536 135.076L419.124 135.323L414.894 131.553C414.702 131.385 414.539 131.256 414.404 131.165C414.269 131.074 414.138 131.016 414.011 130.991C413.885 130.965 413.76 130.975 413.635 131.02C413.505 131.057 413.359 131.124 413.195 131.222L412.961 130.832L415.916 129.061L416.15 129.451C415.86 129.625 415.676 129.781 415.597 129.919C415.518 130.057 415.528 130.208 415.626 130.372C415.67 130.446 415.735 130.529 415.82 130.619C415.9 130.703 416.003 130.808 416.129 130.934L418.485 133.145L418.529 133.118L417.689 127.999L418.035 127.791L421.997 131.04L422.042 131.013L421.629 128.806C421.571 128.507 421.523 128.258 421.484 128.059C421.441 127.852 421.401 127.684 421.364 127.555C421.33 127.413 421.298 127.301 421.268 127.218C421.239 127.135 421.204 127.06 421.164 126.993C421.066 126.829 420.953 126.75 420.825 126.756C420.697 126.762 420.481 126.856 420.176 127.039L419.942 126.649L422.172 125.312L422.406 125.703C422.295 125.769 422.209 125.846 422.15 125.932C422.093 126.006 422.053 126.116 422.029 126.262C422.013 126.403 422.017 126.587 422.042 126.815C422.067 127.042 422.107 127.337 422.162 127.698L422.993 133.004L422.58 133.252L418.754 129.952L418.709 129.979L419.536 135.076ZM427.67 125.564C427.344 125.982 427.079 126.357 426.876 126.692C426.679 127.022 426.539 127.318 426.454 127.581C426.369 127.844 426.332 128.078 426.344 128.283C426.363 128.484 426.422 128.666 426.52 128.83C426.667 129.075 426.869 129.227 427.126 129.285C427.383 129.343 427.646 129.292 427.913 129.131C428.106 129.016 428.256 128.86 428.362 128.666C428.475 128.467 428.545 128.247 428.574 128.008C428.598 127.761 428.58 127.504 428.521 127.237C428.457 126.962 428.349 126.698 428.198 126.445L427.67 125.564ZM427.383 125.085L427.109 124.627C426.565 123.72 425.907 123.499 425.134 123.962C425.007 124.038 424.906 124.113 424.83 124.189C424.754 124.265 424.702 124.347 424.674 124.434C424.646 124.522 424.635 124.63 424.64 124.758C424.654 124.881 424.68 125.027 424.72 125.195C424.768 125.459 424.773 125.653 424.736 125.777C424.702 125.888 424.61 125.988 424.461 126.077C424.09 126.3 423.792 126.226 423.57 125.854C423.356 125.497 423.381 125.108 423.644 124.688C423.903 124.26 424.382 123.837 425.08 123.418C425.824 122.972 426.432 122.79 426.904 122.87C427.373 122.944 427.796 123.296 428.175 123.928L429.672 126.426C430.179 127.273 430.601 127.597 430.935 127.396C431.039 127.334 431.133 127.263 431.216 127.182C431.295 127.095 431.334 126.975 431.334 126.823L431.651 126.998C431.664 127.222 431.588 127.465 431.421 127.726C431.25 127.981 431.034 128.186 430.774 128.341C430.447 128.537 430.139 128.58 429.851 128.47C429.57 128.356 429.316 128.109 429.089 127.73L429.033 127.763C429.058 128.243 428.964 128.693 428.752 129.114C428.534 129.527 428.218 129.858 427.801 130.108C427.333 130.388 426.894 130.49 426.483 130.413C426.073 130.335 425.748 130.096 425.507 129.694C425.4 129.516 425.328 129.327 425.289 129.128C425.258 128.924 425.269 128.706 425.321 128.472C425.373 128.239 425.472 127.983 425.618 127.703C425.759 127.416 425.952 127.099 426.198 126.749L427.383 125.085ZM435.874 127.513C435.991 128.484 435.688 129.185 434.967 129.617C434.499 129.898 434.16 129.864 433.951 129.514C433.839 129.328 433.82 129.153 433.893 128.988C433.978 128.826 434.177 128.611 434.491 128.342C434.634 128.226 434.747 128.112 434.832 128.001C434.921 127.897 434.991 127.785 435.04 127.664C435.093 127.552 435.125 127.427 435.134 127.29C435.15 127.149 435.149 126.988 435.132 126.806L435.054 125.792L430.127 122.425C429.905 122.275 429.722 122.162 429.576 122.088C429.433 122.002 429.301 121.949 429.179 121.932C429.06 121.902 428.946 121.905 428.836 121.94C428.721 121.968 428.585 122.02 428.428 122.094L428.194 121.704L431.149 119.933L431.383 120.323C430.885 120.622 430.709 120.893 430.856 121.139C430.914 121.235 431.035 121.37 431.219 121.542C431.404 121.715 431.605 121.882 431.823 122.044L434.828 124.276L434.883 124.242L434.394 121.125C434.344 120.822 434.302 120.574 434.268 120.383C434.241 120.186 434.214 120.031 434.186 119.917C434.16 119.79 434.131 119.691 434.099 119.62C434.074 119.544 434.043 119.477 434.007 119.417C433.892 119.224 433.758 119.127 433.606 119.127C433.462 119.122 433.238 119.212 432.933 119.394L432.699 119.004L435.152 117.534L435.386 117.924C435.245 118.009 435.137 118.099 435.063 118.194C434.988 118.289 434.939 118.434 434.915 118.631C434.894 118.815 434.894 119.068 434.915 119.389C434.943 119.705 434.993 120.125 435.064 120.648L435.874 127.513ZM440.664 114.958L440.706 114.978C440.769 114.83 440.892 114.665 441.077 114.484C441.257 114.295 441.454 114.136 441.67 114.007C441.997 113.811 442.342 113.695 442.705 113.66C443.063 113.617 443.411 113.65 443.75 113.76C444.096 113.866 444.425 114.043 444.735 114.292C445.041 114.533 445.303 114.835 445.522 115.199C445.789 115.645 445.953 116.113 446.014 116.602C446.077 117.079 446.047 117.552 445.924 118.02C445.803 118.476 445.591 118.906 445.288 119.31C444.992 119.71 444.613 120.048 444.152 120.324C443.84 120.511 443.528 120.648 443.216 120.734C442.899 120.813 442.604 120.843 442.331 120.825C442.065 120.803 441.82 120.732 441.597 120.613C441.377 120.482 441.2 120.305 441.067 120.082C440.947 119.881 440.898 119.698 440.92 119.533C440.95 119.364 441.05 119.228 441.221 119.125C441.377 119.032 441.517 119.004 441.64 119.041C441.771 119.074 441.897 119.14 442.017 119.24C442.137 119.339 442.261 119.452 442.387 119.579C442.509 119.698 442.641 119.8 442.784 119.887C442.934 119.968 443.096 120.012 443.272 120.018C443.455 120.02 443.661 119.952 443.892 119.814C444.182 119.64 444.402 119.417 444.552 119.145C444.698 118.866 444.773 118.553 444.778 118.207C444.778 117.853 444.712 117.473 444.58 117.067C444.451 116.65 444.253 116.218 443.985 115.772C443.607 115.14 443.239 114.729 442.882 114.538C442.533 114.343 442.154 114.368 441.745 114.613C441.433 114.8 441.228 115.04 441.13 115.331C441.034 115.61 441.035 115.974 441.131 116.421C441.167 116.582 441.177 116.692 441.162 116.751C441.147 116.81 441.11 116.858 441.051 116.894C440.887 116.992 440.761 116.966 440.672 116.818C440.649 116.781 440.635 116.749 440.629 116.722L439.063 111.401C439.266 111.37 439.483 111.311 439.714 111.223C439.94 111.128 440.198 110.994 440.488 110.82C441.179 110.406 441.631 110.039 441.844 109.72L441.917 109.691C442.082 110.168 442.081 110.613 441.914 111.026C441.755 111.435 441.441 111.779 440.973 112.06L439.992 112.648L440.664 114.958Z" fill="#C26036"/>
<path d="M437.056 77H426.72V76.392C427.093 76.3813 427.392 76.3493 427.616 76.296C427.851 76.2427 428.032 76.152 428.16 76.024C428.288 75.896 428.373 75.7147 428.416 75.48C428.459 75.2453 428.48 74.9413 428.48 74.568V67.112C428.48 66.7387 428.459 66.44 428.416 66.216C428.384 65.9813 428.309 65.8 428.192 65.672C428.085 65.5333 427.925 65.4427 427.712 65.4C427.499 65.3467 427.221 65.3093 426.88 65.288V64.68H431.744V65.288C431.403 65.2987 431.125 65.3307 430.912 65.384C430.709 65.4373 430.549 65.5333 430.432 65.672C430.325 65.8107 430.251 66.0027 430.208 66.248C430.176 66.4933 430.16 66.8187 430.16 67.224V74.12C430.16 74.568 430.203 74.936 430.288 75.224C430.384 75.5013 430.539 75.72 430.752 75.88C430.976 76.0293 431.269 76.136 431.632 76.2C431.995 76.2533 432.453 76.28 433.008 76.28C433.616 76.28 434.128 76.248 434.544 76.184C434.96 76.1093 435.307 75.9867 435.584 75.816C435.872 75.6347 436.096 75.3893 436.256 75.08C436.427 74.76 436.571 74.3493 436.688 73.848H437.296L437.056 77ZM446.617 75.512C445.71 76.6107 444.585 77.16 443.241 77.16C442.612 77.16 442.041 77.0587 441.529 76.856C441.017 76.6427 440.574 76.3493 440.201 75.976C439.838 75.592 439.556 75.1387 439.353 74.616C439.15 74.0827 439.049 73.496 439.049 72.856C439.049 72.2053 439.156 71.6027 439.369 71.048C439.582 70.4933 439.881 70.0187 440.265 69.624C440.66 69.2293 441.124 68.92 441.657 68.696C442.201 68.472 442.793 68.36 443.433 68.36C444.468 68.36 445.268 68.6427 445.833 69.208C446.398 69.7627 446.681 70.5627 446.681 71.608C446.681 71.7573 446.649 71.848 446.585 71.88C446.532 71.912 446.398 71.928 446.185 71.928H440.921C440.9 72.0133 440.884 72.12 440.873 72.248C440.862 72.3653 440.857 72.4987 440.857 72.648C440.857 73.2027 440.921 73.7093 441.049 74.168C441.188 74.616 441.38 75 441.625 75.32C441.881 75.64 442.18 75.8907 442.521 76.072C442.873 76.2427 443.262 76.328 443.689 76.328C444.137 76.328 444.553 76.232 444.937 76.04C445.321 75.8373 445.716 75.512 446.121 75.064L446.617 75.512ZM443.977 71.192C444.19 71.192 444.361 71.1867 444.489 71.176C444.617 71.1653 444.713 71.144 444.777 71.112C444.841 71.08 444.884 71.0373 444.905 70.984C444.926 70.92 444.937 70.84 444.937 70.744C444.937 70.2533 444.777 69.864 444.457 69.576C444.148 69.2773 443.721 69.128 443.177 69.128C442.025 69.128 441.31 69.816 441.033 71.192H443.977ZM448.717 69.528V68.936C449.282 68.6053 449.725 68.2747 450.045 67.944C450.365 67.6133 450.61 67.2187 450.781 66.76H451.245V68.776H453.389V69.528H451.245V74.392C451.245 74.7653 451.261 75.08 451.293 75.336C451.336 75.592 451.4 75.8 451.485 75.96C451.57 76.1093 451.682 76.216 451.821 76.28C451.96 76.344 452.136 76.376 452.349 76.376C452.616 76.376 452.84 76.3227 453.021 76.216C453.213 76.0987 453.4 75.9067 453.581 75.64L453.981 75.944C453.832 76.3387 453.57 76.6427 453.197 76.856C452.834 77.0587 452.381 77.16 451.837 77.16C451.133 77.16 450.594 76.9947 450.221 76.664C449.858 76.3227 449.677 75.8373 449.677 75.208V69.528H448.717ZM458.092 74.456C458.092 74.8933 458.102 75.24 458.124 75.496C458.145 75.752 458.198 75.9493 458.284 76.088C458.38 76.216 458.513 76.3013 458.684 76.344C458.854 76.3867 459.094 76.4187 459.404 76.44V77H455.148V76.44C455.457 76.4187 455.702 76.3867 455.884 76.344C456.065 76.3013 456.204 76.216 456.3 76.088C456.396 75.96 456.454 75.7787 456.476 75.544C456.508 75.2987 456.524 74.9733 456.524 74.568V67.864C456.524 67.2347 456.513 66.7333 456.492 66.36C456.481 65.9867 456.454 65.704 456.412 65.512C456.39 65.384 456.353 65.2827 456.3 65.208C456.257 65.1227 456.188 65.0587 456.092 65.016C455.996 64.9627 455.868 64.9253 455.708 64.904C455.548 64.8827 455.35 64.872 455.116 64.872V64.328L458.06 63.72V69.816H458.124C458.284 69.6027 458.481 69.4107 458.716 69.24C458.961 69.0587 459.222 68.904 459.5 68.776C459.777 68.648 460.065 68.5467 460.364 68.472C460.673 68.3973 460.972 68.36 461.26 68.36C461.75 68.36 462.198 68.4453 462.604 68.616C463.02 68.7867 463.34 69.016 463.564 69.304C463.745 69.5493 463.878 69.8747 463.964 70.28C464.049 70.6747 464.092 71.2133 464.092 71.896V74.456C464.092 74.8933 464.102 75.24 464.124 75.496C464.145 75.7413 464.198 75.9333 464.284 76.072C464.38 76.2107 464.513 76.3013 464.684 76.344C464.854 76.3867 465.094 76.4187 465.404 76.44V77H461.164V76.44C461.462 76.4293 461.702 76.4027 461.884 76.36C462.065 76.3067 462.198 76.216 462.284 76.088C462.38 75.96 462.438 75.7787 462.46 75.544C462.492 75.2987 462.508 74.9733 462.508 74.568V72.552C462.508 71.3573 462.369 70.5093 462.092 70.008C461.814 69.496 461.35 69.24 460.7 69.24C460.198 69.24 459.74 69.368 459.324 69.624C458.918 69.88 458.598 70.232 458.364 70.68C458.31 70.7973 458.262 70.9093 458.22 71.016C458.188 71.112 458.161 71.224 458.14 71.352C458.118 71.48 458.102 71.6293 458.092 71.8C458.092 71.96 458.092 72.1627 458.092 72.408V74.456ZM469.443 73.656C469.443 74.0613 469.502 74.4347 469.619 74.776C469.737 75.1067 469.897 75.3947 470.099 75.64C470.313 75.8747 470.563 76.0613 470.851 76.2C471.15 76.3387 471.47 76.408 471.811 76.408C472.185 76.408 472.521 76.3227 472.819 76.152C473.129 75.9813 473.39 75.7413 473.603 75.432C473.827 75.112 473.998 74.7333 474.115 74.296C474.243 73.848 474.307 73.352 474.307 72.808C474.307 72.264 474.243 71.768 474.115 71.32C473.987 70.8613 473.811 70.472 473.587 70.152C473.363 69.8213 473.091 69.5653 472.771 69.384C472.462 69.2027 472.121 69.112 471.747 69.112C471.31 69.112 470.921 69.2187 470.579 69.432C470.238 69.6347 469.977 69.9227 469.795 70.296C469.561 70.7653 469.443 71.4107 469.443 72.232V73.656ZM469.411 69.656H469.475C469.817 69.208 470.19 68.8827 470.595 68.68C471.011 68.4667 471.491 68.36 472.035 68.36C472.611 68.36 473.145 68.472 473.635 68.696C474.137 68.92 474.569 69.2293 474.931 69.624C475.305 70.0187 475.593 70.488 475.795 71.032C476.009 71.5653 476.115 72.1413 476.115 72.76C476.115 73.3893 476.009 73.976 475.795 74.52C475.582 75.0533 475.289 75.5173 474.915 75.912C474.553 76.3067 474.121 76.616 473.619 76.84C473.118 77.064 472.574 77.176 471.987 77.176C471.379 77.176 470.809 77.064 470.275 76.84C469.753 76.616 469.321 76.312 468.979 75.928L468.227 77H467.875V67.336C467.875 66.2587 467.806 65.5707 467.667 65.272C467.635 65.1973 467.598 65.1387 467.555 65.096C467.513 65.0427 467.449 65 467.363 64.968C467.278 64.9253 467.161 64.888 467.011 64.856C466.862 64.824 466.659 64.792 466.403 64.76V64.36L469.411 63.72V69.656ZM481.08 74.456C481.08 74.8933 481.091 75.24 481.112 75.496C481.133 75.752 481.187 75.9493 481.272 76.088C481.368 76.216 481.501 76.3013 481.672 76.344C481.843 76.3867 482.083 76.4187 482.392 76.44V77H478.136V76.44C478.445 76.4293 478.691 76.4027 478.872 76.36C479.053 76.3067 479.192 76.216 479.288 76.088C479.384 75.96 479.443 75.7787 479.464 75.544C479.496 75.2987 479.512 74.9733 479.512 74.568V72.696C479.512 71.9707 479.501 71.4053 479.48 71C479.469 70.5947 479.416 70.296 479.32 70.104C479.235 69.912 479.096 69.8 478.904 69.768C478.712 69.7253 478.445 69.704 478.104 69.704V69.144L480.904 68.536L481.128 70.52H481.192C481.331 70.2 481.501 69.9067 481.704 69.64C481.917 69.3733 482.147 69.1493 482.392 68.968C482.637 68.776 482.893 68.6267 483.16 68.52C483.427 68.4133 483.699 68.36 483.976 68.36C484.317 68.36 484.584 68.4453 484.776 68.616C484.979 68.776 485.08 68.9947 485.08 69.272C485.08 69.528 485 69.7307 484.84 69.88C484.68 70.0187 484.451 70.088 484.152 70.088C483.981 70.088 483.837 70.0667 483.72 70.024C483.603 69.9813 483.496 69.9387 483.4 69.896C483.315 69.8427 483.229 69.7947 483.144 69.752C483.069 69.7093 482.984 69.688 482.888 69.688C482.6 69.688 482.312 69.8747 482.024 70.248C481.736 70.6107 481.512 71.0747 481.352 71.64C481.267 71.9493 481.197 72.3013 481.144 72.696C481.101 73.08 481.08 73.4853 481.08 73.912V74.456ZM489.441 74.456C489.441 74.872 489.457 75.208 489.489 75.464C489.532 75.7093 489.606 75.9067 489.713 76.056C489.82 76.1947 489.969 76.2907 490.161 76.344C490.353 76.3973 490.609 76.4293 490.929 76.44V77H486.337V76.44C486.657 76.4293 486.918 76.3973 487.121 76.344C487.324 76.28 487.478 76.184 487.585 76.056C487.702 75.9173 487.777 75.7307 487.809 75.496C487.852 75.2507 487.873 74.9413 487.873 74.568V72.52C487.873 71.9013 487.862 71.3947 487.841 71C487.83 70.5947 487.804 70.3173 487.761 70.168C487.708 69.9227 487.585 69.7573 487.393 69.672C487.201 69.576 486.838 69.528 486.305 69.528V68.968L489.441 68.36V74.456ZM487.601 65.112C487.601 64.8347 487.697 64.6 487.889 64.408C488.081 64.216 488.316 64.12 488.593 64.12C488.87 64.12 489.105 64.216 489.297 64.408C489.489 64.6 489.585 64.8347 489.585 65.112C489.585 65.3893 489.489 65.624 489.297 65.816C489.105 66.008 488.87 66.104 488.593 66.104C488.316 66.104 488.081 66.008 487.889 65.816C487.697 65.624 487.601 65.3893 487.601 65.112ZM499.63 75.656H499.566C499.182 76.2 498.772 76.5893 498.334 76.824C497.908 77.048 497.401 77.16 496.814 77.16C496.206 77.16 495.646 77.0533 495.134 76.84C494.633 76.616 494.196 76.312 493.822 75.928C493.46 75.5333 493.172 75.064 492.958 74.52C492.756 73.976 492.654 73.384 492.654 72.744C492.654 72.1147 492.756 71.5333 492.958 71C493.172 70.456 493.46 69.992 493.822 69.608C494.196 69.2133 494.638 68.9093 495.15 68.696C495.662 68.472 496.217 68.36 496.814 68.36C497.326 68.36 497.78 68.4453 498.174 68.616C498.58 68.7867 498.969 69.0587 499.342 69.432V67.8C499.342 67.192 499.332 66.6853 499.31 66.28C499.3 65.8747 499.278 65.5973 499.246 65.448C499.193 65.2133 499.044 65.048 498.798 64.952C498.553 64.856 498.153 64.808 497.598 64.808V64.328L500.878 63.72V72.952C500.878 73.688 500.884 74.296 500.894 74.776C500.905 75.2453 500.937 75.5813 500.99 75.784C501.022 75.912 501.06 76.0187 501.102 76.104C501.156 76.1893 501.225 76.2587 501.31 76.312C501.406 76.3547 501.529 76.3867 501.678 76.408C501.838 76.4293 502.041 76.44 502.286 76.44V76.984L499.63 77.16V75.656ZM499.31 72.12C499.31 71.5653 499.278 71.144 499.214 70.856C499.161 70.568 499.049 70.3173 498.878 70.104C498.633 69.784 498.318 69.544 497.934 69.384C497.561 69.2133 497.188 69.128 496.814 69.128C496.046 69.128 495.46 69.448 495.054 70.088C494.66 70.7173 494.462 71.576 494.462 72.664C494.462 73.2293 494.51 73.7413 494.606 74.2C494.713 74.6587 494.862 75.0533 495.054 75.384C495.257 75.704 495.502 75.9547 495.79 76.136C496.089 76.3067 496.43 76.392 496.814 76.392C497.006 76.392 497.198 76.3707 497.39 76.328C497.593 76.2853 497.785 76.2213 497.966 76.136C498.158 76.04 498.334 75.9333 498.494 75.816C498.654 75.688 498.788 75.544 498.894 75.384C499.044 75.1493 499.15 74.8667 499.214 74.536C499.278 74.2053 499.31 73.752 499.31 73.176V72.12ZM507.707 73.56C508.155 73.56 508.502 73.3573 508.747 72.952C509.003 72.5467 509.131 71.976 509.131 71.24C509.131 70.5147 509.003 69.9547 508.747 69.56C508.502 69.1547 508.15 68.952 507.691 68.952C507.232 68.952 506.864 69.1547 506.587 69.56C506.32 69.9653 506.187 70.52 506.187 71.224C506.187 71.928 506.326 72.4933 506.603 72.92C506.88 73.3467 507.248 73.56 507.707 73.56ZM506.827 75.432C507.083 75.4533 507.318 75.4747 507.531 75.496C507.744 75.5173 507.952 75.5387 508.155 75.56C508.368 75.5813 508.576 75.608 508.779 75.64C508.992 75.672 509.222 75.704 509.467 75.736C510.235 75.8533 510.848 76.152 511.307 76.632C511.776 77.1013 512.011 77.6933 512.011 78.408C512.011 79.304 511.654 79.9867 510.939 80.456C510.235 80.9253 509.211 81.16 507.867 81.16C507.27 81.16 506.72 81.1067 506.219 81C505.728 80.8933 505.307 80.7387 504.955 80.536C504.603 80.344 504.326 80.1093 504.123 79.832C503.931 79.5547 503.835 79.2507 503.835 78.92C503.835 78.696 503.872 78.488 503.947 78.296C504.022 78.104 504.123 77.9333 504.251 77.784C504.379 77.6453 504.528 77.5333 504.699 77.448C504.88 77.3627 505.067 77.32 505.259 77.32C505.622 77.32 505.947 77.432 506.235 77.656C505.947 77.72 505.712 77.8747 505.531 78.12C505.35 78.376 505.259 78.664 505.259 78.984C505.259 79.4533 505.488 79.816 505.947 80.072C506.416 80.328 507.078 80.456 507.931 80.456C509.755 80.456 510.667 79.896 510.667 78.776C510.667 78.3493 510.523 77.992 510.235 77.704C509.947 77.4267 509.606 77.2613 509.211 77.208C508.955 77.176 508.688 77.1387 508.411 77.096C508.144 77.064 507.878 77.032 507.611 77C507.355 76.968 507.115 76.9413 506.891 76.92C506.667 76.8987 506.486 76.8773 506.347 76.856C505.75 76.792 505.296 76.632 504.987 76.376C504.678 76.12 504.523 75.768 504.523 75.32C504.523 74.9467 504.678 74.616 504.987 74.328C505.296 74.04 505.686 73.8587 506.155 73.784V73.72C505.92 73.624 505.702 73.4907 505.499 73.32C505.296 73.1387 505.12 72.936 504.971 72.712C504.832 72.488 504.72 72.248 504.635 71.992C504.55 71.7253 504.507 71.4533 504.507 71.176C504.507 70.7707 504.582 70.3973 504.731 70.056C504.891 69.7147 505.11 69.4213 505.387 69.176C505.675 68.92 506.011 68.7227 506.395 68.584C506.779 68.4347 507.2 68.36 507.659 68.36C508.128 68.36 508.571 68.4347 508.987 68.584C509.403 68.7227 509.76 68.9307 510.059 69.208C510.422 68.9093 510.742 68.696 511.019 68.568C511.296 68.4293 511.558 68.36 511.803 68.36C512.187 68.36 512.491 68.4507 512.715 68.632C512.95 68.8027 513.067 69.0373 513.067 69.336C513.067 69.5173 513.003 69.6613 512.875 69.768C512.758 69.8747 512.608 69.928 512.427 69.928C512.278 69.928 512.155 69.9013 512.059 69.848C511.963 69.7947 511.872 69.7413 511.787 69.688C511.712 69.624 511.632 69.5653 511.547 69.512C511.462 69.4587 511.355 69.432 511.227 69.432C510.971 69.432 510.71 69.5227 510.443 69.704C510.699 70.0987 510.827 70.5947 510.827 71.192C510.827 72.0987 510.544 72.8133 509.979 73.336C509.414 73.848 508.566 74.1467 507.435 74.232C506.784 74.2853 506.331 74.3547 506.075 74.44C505.819 74.5253 505.691 74.68 505.691 74.904C505.691 75.0747 505.787 75.2027 505.979 75.288C506.171 75.3627 506.454 75.4107 506.827 75.432ZM521.815 75.512C520.908 76.6107 519.783 77.16 518.439 77.16C517.81 77.16 517.239 77.0587 516.727 76.856C516.215 76.6427 515.772 76.3493 515.399 75.976C515.036 75.592 514.754 75.1387 514.551 74.616C514.348 74.0827 514.247 73.496 514.247 72.856C514.247 72.2053 514.354 71.6027 514.567 71.048C514.78 70.4933 515.079 70.0187 515.463 69.624C515.858 69.2293 516.322 68.92 516.855 68.696C517.399 68.472 517.991 68.36 518.631 68.36C519.666 68.36 520.466 68.6427 521.031 69.208C521.596 69.7627 521.879 70.5627 521.879 71.608C521.879 71.7573 521.847 71.848 521.783 71.88C521.73 71.912 521.596 71.928 521.383 71.928H516.119C516.098 72.0133 516.082 72.12 516.071 72.248C516.06 72.3653 516.055 72.4987 516.055 72.648C516.055 73.2027 516.119 73.7093 516.247 74.168C516.386 74.616 516.578 75 516.823 75.32C517.079 75.64 517.378 75.8907 517.719 76.072C518.071 76.2427 518.46 76.328 518.887 76.328C519.335 76.328 519.751 76.232 520.135 76.04C520.519 75.8373 520.914 75.512 521.319 75.064L521.815 75.512ZM519.175 71.192C519.388 71.192 519.559 71.1867 519.687 71.176C519.815 71.1653 519.911 71.144 519.975 71.112C520.039 71.08 520.082 71.0373 520.103 70.984C520.124 70.92 520.135 70.84 520.135 70.744C520.135 70.2533 519.975 69.864 519.655 69.576C519.346 69.2773 518.919 69.128 518.375 69.128C517.223 69.128 516.508 69.816 516.231 71.192H519.175Z" fill="#50804F"/>
<path d="M324.024 178.68H324.472L324.616 182.36H324.024C323.789 181.421 323.336 180.685 322.664 180.152C321.992 179.619 321.181 179.352 320.232 179.352C319.581 179.352 319 179.48 318.488 179.736C317.976 179.992 317.544 180.36 317.192 180.84C316.84 181.32 316.568 181.907 316.376 182.6C316.195 183.293 316.104 184.077 316.104 184.952C316.104 186.669 316.461 187.992 317.176 188.92C317.891 189.837 318.925 190.296 320.28 190.296C322.339 190.296 323.661 189.203 324.248 187.016H324.904V191H324.344L323.976 189.736C322.856 190.685 321.501 191.16 319.912 191.16C319.005 191.16 318.184 191.016 317.448 190.728C316.723 190.44 316.099 190.035 315.576 189.512C315.064 188.979 314.664 188.333 314.376 187.576C314.099 186.819 313.96 185.976 313.96 185.048C313.96 184.077 314.109 183.192 314.408 182.392C314.707 181.592 315.123 180.904 315.656 180.328C316.2 179.752 316.845 179.309 317.592 179C318.349 178.68 319.181 178.52 320.088 178.52C320.728 178.52 321.331 178.611 321.896 178.792C322.461 178.973 323.075 179.267 323.736 179.672L324.024 178.68ZM332.692 186.264C332.084 186.499 331.567 186.728 331.14 186.952C330.724 187.176 330.388 187.4 330.132 187.624C329.876 187.848 329.689 188.072 329.572 188.296C329.465 188.52 329.412 188.749 329.412 188.984C329.412 189.336 329.529 189.624 329.764 189.848C329.999 190.072 330.308 190.184 330.692 190.184C330.969 190.184 331.225 190.115 331.46 189.976C331.705 189.837 331.919 189.651 332.1 189.416C332.281 189.171 332.425 188.888 332.532 188.568C332.639 188.237 332.692 187.891 332.692 187.528V186.264ZM332.692 185.576V184.92C332.692 183.619 332.137 182.968 331.028 182.968C330.847 182.968 330.692 182.984 330.564 183.016C330.436 183.048 330.329 183.101 330.244 183.176C330.159 183.251 330.079 183.357 330.004 183.496C329.94 183.635 329.876 183.805 329.812 184.008C329.695 184.317 329.577 184.525 329.46 184.632C329.353 184.728 329.193 184.776 328.98 184.776C328.447 184.776 328.18 184.509 328.18 183.976C328.18 183.464 328.452 183.069 328.996 182.792C329.54 182.504 330.313 182.36 331.316 182.36C332.383 182.36 333.14 182.552 333.588 182.936C334.036 183.309 334.26 183.949 334.26 184.856V188.44C334.26 189.656 334.5 190.264 334.98 190.264C335.129 190.264 335.273 190.248 335.412 190.216C335.551 190.173 335.668 190.072 335.764 189.912L335.988 190.296C335.86 190.541 335.625 190.749 335.284 190.92C334.943 191.08 334.585 191.16 334.212 191.16C333.743 191.16 333.391 191.011 333.156 190.712C332.932 190.413 332.82 189.992 332.82 189.448H332.74C332.463 189.971 332.079 190.387 331.588 190.696C331.097 190.995 330.553 191.144 329.956 191.144C329.284 191.144 328.756 190.973 328.372 190.632C327.988 190.291 327.796 189.832 327.796 189.256C327.796 189 327.839 188.755 327.924 188.52C328.02 188.285 328.169 188.061 328.372 187.848C328.575 187.635 328.841 187.427 329.172 187.224C329.503 187.011 329.908 186.797 330.388 186.584L332.692 185.576ZM340.799 188.456C340.799 188.893 340.81 189.24 340.831 189.496C340.853 189.752 340.906 189.949 340.991 190.088C341.087 190.216 341.221 190.301 341.391 190.344C341.562 190.387 341.802 190.419 342.111 190.44V191H337.855V190.44C338.165 190.429 338.41 190.403 338.591 190.36C338.773 190.307 338.911 190.216 339.007 190.088C339.103 189.96 339.162 189.779 339.183 189.544C339.215 189.299 339.231 188.973 339.231 188.568V186.696C339.231 185.971 339.221 185.405 339.199 185C339.189 184.595 339.135 184.296 339.039 184.104C338.954 183.912 338.815 183.8 338.623 183.768C338.431 183.725 338.165 183.704 337.823 183.704V183.144L340.623 182.536L340.847 184.52H340.911C341.05 184.2 341.221 183.907 341.423 183.64C341.637 183.373 341.866 183.149 342.111 182.968C342.357 182.776 342.613 182.627 342.879 182.52C343.146 182.413 343.418 182.36 343.695 182.36C344.037 182.36 344.303 182.445 344.495 182.616C344.698 182.776 344.799 182.995 344.799 183.272C344.799 183.528 344.719 183.731 344.559 183.88C344.399 184.019 344.17 184.088 343.872 184.088C343.701 184.088 343.557 184.067 343.439 184.024C343.322 183.981 343.215 183.939 343.119 183.896C343.034 183.843 342.949 183.795 342.863 183.752C342.789 183.709 342.703 183.688 342.607 183.688C342.319 183.688 342.031 183.875 341.743 184.248C341.455 184.611 341.231 185.075 341.071 185.64C340.986 185.949 340.917 186.301 340.863 186.696C340.821 187.08 340.799 187.485 340.799 187.912V188.456ZM353.74 189.656H353.676C353.292 190.2 352.882 190.589 352.444 190.824C352.018 191.048 351.511 191.16 350.924 191.16C350.316 191.16 349.756 191.053 349.244 190.84C348.743 190.616 348.306 190.312 347.932 189.928C347.57 189.533 347.282 189.064 347.068 188.52C346.866 187.976 346.764 187.384 346.764 186.744C346.764 186.115 346.866 185.533 347.068 185C347.282 184.456 347.57 183.992 347.932 183.608C348.306 183.213 348.748 182.909 349.26 182.696C349.772 182.472 350.327 182.36 350.924 182.36C351.436 182.36 351.89 182.445 352.284 182.616C352.69 182.787 353.079 183.059 353.452 183.432V181.8C353.452 181.192 353.442 180.685 353.42 180.28C353.41 179.875 353.388 179.597 353.356 179.448C353.303 179.213 353.154 179.048 352.908 178.952C352.663 178.856 352.263 178.808 351.708 178.808V178.328L354.988 177.72V186.952C354.988 187.688 354.994 188.296 355.004 188.776C355.015 189.245 355.047 189.581 355.1 189.784C355.132 189.912 355.17 190.019 355.212 190.104C355.266 190.189 355.335 190.259 355.42 190.312C355.516 190.355 355.639 190.387 355.788 190.408C355.948 190.429 356.151 190.44 356.396 190.44V190.984L353.74 191.16V189.656ZM353.42 186.12C353.42 185.565 353.388 185.144 353.324 184.856C353.271 184.568 353.159 184.317 352.988 184.104C352.743 183.784 352.428 183.544 352.044 183.384C351.671 183.213 351.298 183.128 350.924 183.128C350.156 183.128 349.57 183.448 349.164 184.088C348.77 184.717 348.572 185.576 348.572 186.664C348.572 187.229 348.62 187.741 348.716 188.2C348.823 188.659 348.972 189.053 349.164 189.384C349.367 189.704 349.612 189.955 349.9 190.136C350.199 190.307 350.54 190.392 350.924 190.392C351.116 190.392 351.308 190.371 351.5 190.328C351.703 190.285 351.895 190.221 352.076 190.136C352.268 190.04 352.444 189.933 352.604 189.816C352.764 189.688 352.898 189.544 353.004 189.384C353.154 189.149 353.26 188.867 353.324 188.536C353.388 188.205 353.42 187.752 353.42 187.176V186.12ZM359.449 191H359.097V188.248H359.497C359.913 189.752 360.67 190.504 361.769 190.504C362.196 190.504 362.532 190.403 362.777 190.2C363.033 189.987 363.161 189.667 363.161 189.24C363.161 189.08 363.134 188.947 363.081 188.84C363.038 188.723 362.948 188.605 362.809 188.488C362.681 188.36 362.494 188.216 362.249 188.056C362.014 187.896 361.7 187.693 361.305 187.448C360.942 187.224 360.628 187.016 360.361 186.824C360.094 186.632 359.87 186.44 359.689 186.248C359.508 186.045 359.369 185.832 359.273 185.608C359.188 185.384 359.145 185.123 359.145 184.824C359.145 184.461 359.204 184.131 359.321 183.832C359.449 183.523 359.62 183.261 359.833 183.048C360.046 182.835 360.297 182.669 360.585 182.552C360.873 182.424 361.188 182.36 361.529 182.36C361.817 182.36 362.116 182.408 362.425 182.504C362.734 182.589 363.006 182.707 363.241 182.856L363.561 182.52H363.865V184.824H363.449C363.214 184.173 362.958 183.709 362.681 183.432C362.404 183.155 362.062 183.016 361.657 183.016C361.294 183.016 361.001 183.112 360.777 183.304C360.564 183.496 360.457 183.763 360.457 184.104C360.457 184.285 360.484 184.445 360.537 184.584C360.601 184.712 360.697 184.84 360.825 184.968C360.953 185.096 361.113 185.229 361.305 185.368C361.508 185.496 361.748 185.645 362.025 185.816C362.484 186.104 362.873 186.36 363.193 186.584C363.524 186.808 363.79 187.032 363.993 187.256C364.196 187.469 364.345 187.693 364.441 187.928C364.537 188.163 364.585 188.429 364.585 188.728C364.585 189.485 364.34 190.083 363.849 190.52C363.358 190.947 362.713 191.16 361.913 191.16C361.081 191.16 360.366 190.92 359.769 190.44L359.449 191ZM367.259 183.528V182.936C367.824 182.605 368.267 182.275 368.587 181.944C368.907 181.613 369.152 181.219 369.323 180.76H369.787V182.776H371.931V183.528H369.787V188.392C369.787 188.765 369.803 189.08 369.835 189.336C369.877 189.592 369.941 189.8 370.027 189.96C370.112 190.109 370.224 190.216 370.363 190.28C370.501 190.344 370.677 190.376 370.891 190.376C371.157 190.376 371.381 190.323 371.563 190.216C371.755 190.099 371.941 189.907 372.123 189.64L372.523 189.944C372.373 190.339 372.112 190.643 371.739 190.856C371.376 191.059 370.923 191.16 370.379 191.16C369.675 191.16 369.136 190.995 368.763 190.664C368.4 190.323 368.219 189.837 368.219 189.208V183.528H367.259ZM379.146 182.36C379.754 182.36 380.33 182.472 380.874 182.696C381.418 182.909 381.892 183.208 382.298 183.592C382.714 183.976 383.039 184.435 383.274 184.968C383.519 185.491 383.642 186.067 383.642 186.696C383.642 187.347 383.519 187.944 383.274 188.488C383.039 189.032 382.714 189.501 382.298 189.896C381.892 190.291 381.418 190.6 380.874 190.824C380.33 191.048 379.754 191.16 379.146 191.16C378.548 191.16 377.978 191.053 377.434 190.84C376.9 190.616 376.431 190.307 376.026 189.912C375.62 189.517 375.3 189.048 375.066 188.504C374.831 187.949 374.714 187.347 374.714 186.696C374.714 186.067 374.831 185.485 375.066 184.952C375.3 184.419 375.62 183.96 376.026 183.576C376.431 183.192 376.9 182.893 377.434 182.68C377.978 182.467 378.548 182.36 379.146 182.36ZM379.146 183.128C378.751 183.128 378.388 183.213 378.058 183.384C377.738 183.555 377.46 183.8 377.226 184.12C377.002 184.429 376.826 184.808 376.698 185.256C376.58 185.693 376.522 186.179 376.522 186.712C376.522 187.267 376.58 187.768 376.698 188.216C376.826 188.664 377.002 189.048 377.226 189.368C377.46 189.677 377.738 189.917 378.058 190.088C378.378 190.259 378.74 190.344 379.146 190.344C379.551 190.344 379.919 190.259 380.25 190.088C380.58 189.917 380.863 189.672 381.098 189.352C381.332 189.032 381.514 188.648 381.642 188.2C381.77 187.752 381.834 187.256 381.834 186.712C381.834 186.179 381.77 185.693 381.642 185.256C381.514 184.819 381.332 184.445 381.098 184.136C380.863 183.816 380.58 183.571 380.25 183.4C379.919 183.219 379.551 183.128 379.146 183.128ZM389.15 188.488C389.15 188.925 389.161 189.272 389.182 189.528C389.204 189.773 389.257 189.965 389.342 190.104C389.438 190.232 389.572 190.317 389.742 190.36C389.924 190.403 390.169 190.435 390.478 190.456V191H386.286V190.456C386.585 190.435 386.82 190.403 386.99 190.36C387.172 190.317 387.31 190.232 387.406 190.104C387.502 189.976 387.561 189.795 387.582 189.56C387.614 189.325 387.63 189.005 387.63 188.6V186.472C387.63 185.203 387.598 184.429 387.534 184.152C387.502 184.013 387.46 183.901 387.406 183.816C387.364 183.72 387.294 183.651 387.198 183.608C387.102 183.555 386.98 183.523 386.83 183.512C386.681 183.491 386.489 183.48 386.254 183.48V182.968L388.814 182.36L389.006 183.944H389.07C389.476 183.443 389.95 183.053 390.494 182.776C391.038 182.499 391.63 182.36 392.27 182.36C392.761 182.36 393.209 182.44 393.614 182.6C394.02 182.76 394.329 182.979 394.542 183.256C394.724 183.501 394.852 183.821 394.926 184.216C395.001 184.6 395.038 185.133 395.038 185.816V188.488C395.038 188.925 395.049 189.272 395.07 189.528C395.102 189.773 395.161 189.965 395.246 190.104C395.332 190.232 395.46 190.317 395.63 190.36C395.812 190.403 396.046 190.435 396.334 190.456V191H392.19V190.456C392.489 190.445 392.724 190.419 392.894 190.376C393.076 190.323 393.209 190.232 393.294 190.104C393.39 189.976 393.449 189.795 393.47 189.56C393.502 189.315 393.518 188.995 393.518 188.6V186.488C393.518 185.88 393.486 185.368 393.422 184.952C393.358 184.536 393.252 184.2 393.102 183.944C392.964 183.688 392.777 183.507 392.542 183.4C392.308 183.283 392.025 183.224 391.694 183.224C391.214 183.224 390.772 183.352 390.366 183.608C389.972 183.853 389.662 184.195 389.438 184.632C389.385 184.739 389.337 184.84 389.294 184.936C389.262 185.032 389.236 185.144 389.214 185.272C389.193 185.4 389.177 185.549 389.166 185.72C389.156 185.88 389.15 186.088 389.15 186.344V188.488Z" fill="#50804F"/>
<path d="M168.344 192.584L170.84 185.64C170.989 185.224 171.096 184.893 171.16 184.648C171.224 184.403 171.256 184.189 171.256 184.008C171.256 183.731 171.165 183.544 170.984 183.448C170.813 183.341 170.504 183.288 170.056 183.288V182.68H173.944V183.288C173.453 183.288 173.08 183.389 172.824 183.592C172.579 183.795 172.371 184.125 172.2 184.584L168.184 195.16H167.624L164.552 186.056L161.144 195.16H160.584L157.256 185.976C157.064 185.464 156.888 185.037 156.728 184.696C156.579 184.344 156.413 184.067 156.232 183.864C156.061 183.661 155.864 183.517 155.64 183.432C155.416 183.347 155.144 183.304 154.824 183.304V182.68H160.04V183.304C159.496 183.304 159.112 183.352 158.888 183.448C158.675 183.544 158.568 183.731 158.568 184.008C158.568 184.147 158.589 184.307 158.632 184.488C158.675 184.669 158.739 184.883 158.824 185.128L161.256 192.536L163.224 187C163.373 186.584 163.517 186.2 163.656 185.848C163.805 185.485 163.923 185.16 164.008 184.872C163.859 184.563 163.72 184.307 163.592 184.104C163.475 183.901 163.352 183.741 163.224 183.624C163.107 183.507 162.979 183.427 162.84 183.384C162.712 183.331 162.573 183.304 162.424 183.304V182.68H167.32V183.304C167.011 183.304 166.76 183.315 166.568 183.336C166.376 183.357 166.227 183.395 166.12 183.448C166.024 183.491 165.955 183.555 165.912 183.64C165.88 183.725 165.864 183.827 165.864 183.944C165.864 184.104 165.891 184.301 165.944 184.536C166.008 184.76 166.093 185.048 166.2 185.4L168.344 192.584ZM178.79 190.264C178.182 190.499 177.665 190.728 177.238 190.952C176.822 191.176 176.486 191.4 176.23 191.624C175.974 191.848 175.788 192.072 175.67 192.296C175.564 192.52 175.51 192.749 175.51 192.984C175.51 193.336 175.628 193.624 175.862 193.848C176.097 194.072 176.406 194.184 176.79 194.184C177.068 194.184 177.324 194.115 177.558 193.976C177.804 193.837 178.017 193.651 178.198 193.416C178.38 193.171 178.524 192.888 178.63 192.568C178.737 192.237 178.79 191.891 178.79 191.528V190.264ZM178.79 189.576V188.92C178.79 187.619 178.236 186.968 177.126 186.968C176.945 186.968 176.79 186.984 176.662 187.016C176.534 187.048 176.428 187.101 176.342 187.176C176.257 187.251 176.177 187.357 176.102 187.496C176.038 187.635 175.974 187.805 175.91 188.008C175.793 188.317 175.676 188.525 175.558 188.632C175.452 188.728 175.292 188.776 175.078 188.776C174.545 188.776 174.278 188.509 174.278 187.976C174.278 187.464 174.55 187.069 175.094 186.792C175.638 186.504 176.412 186.36 177.414 186.36C178.481 186.36 179.238 186.552 179.686 186.936C180.134 187.309 180.358 187.949 180.358 188.856V192.44C180.358 193.656 180.598 194.264 181.078 194.264C181.228 194.264 181.372 194.248 181.51 194.216C181.649 194.173 181.766 194.072 181.862 193.912L182.086 194.296C181.958 194.541 181.724 194.749 181.382 194.92C181.041 195.08 180.684 195.16 180.31 195.16C179.841 195.16 179.489 195.011 179.254 194.712C179.03 194.413 178.918 193.992 178.918 193.448H178.838C178.561 193.971 178.177 194.387 177.686 194.696C177.196 194.995 176.652 195.144 176.054 195.144C175.382 195.144 174.854 194.973 174.47 194.632C174.086 194.291 173.894 193.832 173.894 193.256C173.894 193 173.937 192.755 174.022 192.52C174.118 192.285 174.268 192.061 174.47 191.848C174.673 191.635 174.94 191.427 175.27 191.224C175.601 191.011 176.006 190.797 176.486 190.584L178.79 189.576ZM183.506 187.528V186.936C184.071 186.605 184.514 186.275 184.834 185.944C185.154 185.613 185.399 185.219 185.57 184.76H186.034V186.776H188.178V187.528H186.034V192.392C186.034 192.765 186.05 193.08 186.082 193.336C186.124 193.592 186.188 193.8 186.274 193.96C186.359 194.109 186.471 194.216 186.61 194.28C186.748 194.344 186.924 194.376 187.138 194.376C187.404 194.376 187.628 194.323 187.81 194.216C188.002 194.099 188.188 193.907 188.37 193.64L188.77 193.944C188.62 194.339 188.359 194.643 187.986 194.856C187.623 195.059 187.17 195.16 186.626 195.16C185.922 195.16 185.383 194.995 185.01 194.664C184.647 194.323 184.466 193.837 184.466 193.208V187.528H183.506ZM198.065 193.512C197.158 194.611 196.033 195.16 194.689 195.16C194.059 195.16 193.489 195.059 192.977 194.856C192.465 194.643 192.022 194.349 191.649 193.976C191.286 193.592 191.003 193.139 190.801 192.616C190.598 192.083 190.497 191.496 190.497 190.856C190.497 190.205 190.603 189.603 190.817 189.048C191.03 188.493 191.329 188.019 191.713 187.624C192.107 187.229 192.571 186.92 193.105 186.696C193.649 186.472 194.241 186.36 194.881 186.36C195.915 186.36 196.715 186.643 197.281 187.208C197.846 187.763 198.129 188.563 198.129 189.608C198.129 189.757 198.097 189.848 198.033 189.88C197.979 189.912 197.846 189.928 197.633 189.928H192.369C192.347 190.013 192.331 190.12 192.321 190.248C192.31 190.365 192.305 190.499 192.305 190.648C192.305 191.203 192.369 191.709 192.497 192.168C192.635 192.616 192.827 193 193.073 193.32C193.329 193.64 193.627 193.891 193.969 194.072C194.321 194.243 194.71 194.328 195.137 194.328C195.585 194.328 196.001 194.232 196.385 194.04C196.769 193.837 197.163 193.512 197.569 193.064L198.065 193.512ZM195.425 189.192C195.638 189.192 195.809 189.187 195.937 189.176C196.065 189.165 196.161 189.144 196.225 189.112C196.289 189.08 196.331 189.037 196.353 188.984C196.374 188.92 196.385 188.84 196.385 188.744C196.385 188.253 196.225 187.864 195.905 187.576C195.595 187.277 195.169 187.128 194.625 187.128C193.473 187.128 192.758 187.816 192.481 189.192H195.425ZM203.236 192.456C203.236 192.893 203.247 193.24 203.268 193.496C203.29 193.752 203.343 193.949 203.428 194.088C203.524 194.216 203.658 194.301 203.828 194.344C203.999 194.387 204.239 194.419 204.548 194.44V195H200.292V194.44C200.602 194.429 200.847 194.403 201.028 194.36C201.21 194.307 201.348 194.216 201.444 194.088C201.54 193.96 201.599 193.779 201.62 193.544C201.652 193.299 201.668 192.973 201.668 192.568V190.696C201.668 189.971 201.658 189.405 201.636 189C201.626 188.595 201.572 188.296 201.476 188.104C201.391 187.912 201.252 187.8 201.06 187.768C200.868 187.725 200.602 187.704 200.26 187.704V187.144L203.06 186.536L203.284 188.52H203.348C203.487 188.2 203.658 187.907 203.86 187.64C204.074 187.373 204.303 187.149 204.548 186.968C204.794 186.776 205.05 186.627 205.316 186.52C205.583 186.413 205.855 186.36 206.132 186.36C206.474 186.36 206.74 186.445 206.932 186.616C207.135 186.776 207.236 186.995 207.236 187.272C207.236 187.528 207.156 187.731 206.996 187.88C206.836 188.019 206.607 188.088 206.308 188.088C206.138 188.088 205.994 188.067 205.876 188.024C205.759 187.981 205.652 187.939 205.556 187.896C205.471 187.843 205.386 187.795 205.3 187.752C205.226 187.709 205.14 187.688 205.044 187.688C204.756 187.688 204.468 187.875 204.18 188.248C203.892 188.611 203.668 189.075 203.508 189.64C203.423 189.949 203.354 190.301 203.3 190.696C203.258 191.08 203.236 191.485 203.236 191.912V192.456ZM208.749 187.528V186.936C209.315 186.605 209.757 186.275 210.077 185.944C210.397 185.613 210.643 185.219 210.813 184.76H211.277V186.776H213.421V187.528H211.277V192.392C211.277 192.765 211.293 193.08 211.325 193.336C211.368 193.592 211.432 193.8 211.517 193.96C211.603 194.109 211.715 194.216 211.853 194.28C211.992 194.344 212.168 194.376 212.381 194.376C212.648 194.376 212.872 194.323 213.053 194.216C213.245 194.099 213.432 193.907 213.613 193.64L214.013 193.944C213.864 194.339 213.603 194.643 213.229 194.856C212.867 195.059 212.413 195.16 211.869 195.16C211.165 195.16 210.627 194.995 210.253 194.664C209.891 194.323 209.709 193.837 209.709 193.208V187.528H208.749ZM220.156 186.36C220.764 186.36 221.34 186.472 221.884 186.696C222.428 186.909 222.903 187.208 223.308 187.592C223.724 187.976 224.05 188.435 224.284 188.968C224.53 189.491 224.652 190.067 224.652 190.696C224.652 191.347 224.53 191.944 224.284 192.488C224.05 193.032 223.724 193.501 223.308 193.896C222.903 194.291 222.428 194.6 221.884 194.824C221.34 195.048 220.764 195.16 220.156 195.16C219.559 195.16 218.988 195.053 218.444 194.84C217.911 194.616 217.442 194.307 217.036 193.912C216.631 193.517 216.311 193.048 216.076 192.504C215.842 191.949 215.724 191.347 215.724 190.696C215.724 190.067 215.842 189.485 216.076 188.952C216.311 188.419 216.631 187.96 217.036 187.576C217.442 187.192 217.911 186.893 218.444 186.68C218.988 186.467 219.559 186.36 220.156 186.36ZM220.156 187.128C219.762 187.128 219.399 187.213 219.068 187.384C218.748 187.555 218.471 187.8 218.236 188.12C218.012 188.429 217.836 188.808 217.708 189.256C217.591 189.693 217.532 190.179 217.532 190.712C217.532 191.267 217.591 191.768 217.708 192.216C217.836 192.664 218.012 193.048 218.236 193.368C218.471 193.677 218.748 193.917 219.068 194.088C219.388 194.259 219.751 194.344 220.156 194.344C220.562 194.344 220.93 194.259 221.26 194.088C221.591 193.917 221.874 193.672 222.108 193.352C222.343 193.032 222.524 192.648 222.652 192.2C222.78 191.752 222.844 191.256 222.844 190.712C222.844 190.179 222.78 189.693 222.652 189.256C222.524 188.819 222.343 188.445 222.108 188.136C221.874 187.816 221.591 187.571 221.26 187.4C220.93 187.219 220.562 187.128 220.156 187.128ZM229.681 192.488C229.681 192.925 229.692 193.272 229.713 193.528C229.734 193.773 229.788 193.965 229.873 194.104C229.969 194.232 230.102 194.317 230.273 194.36C230.454 194.403 230.7 194.435 231.009 194.456V195H226.817V194.456C227.116 194.435 227.35 194.403 227.521 194.36C227.702 194.317 227.841 194.232 227.937 194.104C228.033 193.976 228.092 193.795 228.113 193.56C228.145 193.325 228.161 193.005 228.161 192.6V190.472C228.161 189.203 228.129 188.429 228.065 188.152C228.033 188.013 227.99 187.901 227.937 187.816C227.894 187.72 227.825 187.651 227.729 187.608C227.633 187.555 227.51 187.523 227.361 187.512C227.212 187.491 227.02 187.48 226.785 187.48V186.968L229.345 186.36L229.537 187.944H229.601C230.006 187.443 230.481 187.053 231.025 186.776C231.569 186.499 232.161 186.36 232.801 186.36C233.292 186.36 233.74 186.44 234.145 186.6C234.55 186.76 234.86 186.979 235.073 187.256C235.254 187.501 235.382 187.821 235.457 188.216C235.532 188.6 235.569 189.133 235.569 189.816V192.488C235.569 192.925 235.58 193.272 235.601 193.528C235.633 193.773 235.692 193.965 235.777 194.104C235.862 194.232 235.99 194.317 236.161 194.36C236.342 194.403 236.577 194.435 236.865 194.456V195H232.721V194.456C233.02 194.445 233.254 194.419 233.425 194.376C233.606 194.323 233.74 194.232 233.825 194.104C233.921 193.976 233.98 193.795 234.001 193.56C234.033 193.315 234.049 192.995 234.049 192.6V190.488C234.049 189.88 234.017 189.368 233.953 188.952C233.889 188.536 233.782 188.2 233.633 187.944C233.494 187.688 233.308 187.507 233.073 187.4C232.838 187.283 232.556 187.224 232.225 187.224C231.745 187.224 231.302 187.352 230.897 187.608C230.502 187.853 230.193 188.195 229.969 188.632C229.916 188.739 229.868 188.84 229.825 188.936C229.793 189.032 229.766 189.144 229.745 189.272C229.724 189.4 229.708 189.549 229.697 189.72C229.686 189.88 229.681 190.088 229.681 190.344V192.488Z" fill="#50804F"/>
<path d="M79.715 254.195L83.18 245.45H87.56V246.05C87.23 246.05 86.96 246.085 86.75 246.155C86.55 246.215 86.395 246.33 86.285 246.5C86.175 246.67 86.1 246.905 86.06 247.205C86.03 247.495 86.015 247.865 86.015 248.315V254.135C86.015 254.635 86.035 255.03 86.075 255.32C86.115 255.61 86.195 255.835 86.315 255.995C86.435 256.155 86.605 256.26 86.825 256.31C87.055 256.36 87.355 256.39 87.725 256.4V257H82.085V256.4C82.455 256.39 82.75 256.36 82.97 256.31C83.2 256.25 83.375 256.145 83.495 255.995C83.625 255.845 83.71 255.635 83.75 255.365C83.79 255.085 83.81 254.71 83.81 254.24V247.22H83.735L79.7 257.15H78.59L74.42 247.22H74.36V254.135C74.36 254.635 74.38 255.03 74.42 255.32C74.46 255.61 74.54 255.835 74.66 255.995C74.78 256.155 74.95 256.26 75.17 256.31C75.4 256.36 75.7 256.39 76.07 256.4V257H71.45V256.4C71.82 256.39 72.12 256.36 72.35 256.31C72.58 256.25 72.755 256.145 72.875 255.995C73.005 255.845 73.09 255.635 73.13 255.365C73.17 255.085 73.19 254.71 73.19 254.24V248.21C73.19 247.79 73.17 247.44 73.13 247.16C73.09 246.88 73.015 246.66 72.905 246.5C72.795 246.33 72.635 246.215 72.425 246.155C72.225 246.085 71.955 246.05 71.615 246.05V245.45H76.16L79.655 254.195H79.715ZM93.9364 248.9C94.5364 248.9 95.1014 249.005 95.6314 249.215C96.1714 249.415 96.6414 249.695 97.0414 250.055C97.4514 250.415 97.7714 250.845 98.0014 251.345C98.2414 251.835 98.3614 252.375 98.3614 252.965C98.3614 253.575 98.2414 254.135 98.0014 254.645C97.7714 255.155 97.4514 255.595 97.0414 255.965C96.6414 256.335 96.1714 256.625 95.6314 256.835C95.1014 257.045 94.5364 257.15 93.9364 257.15C93.3464 257.15 92.7864 257.05 92.2564 256.85C91.7264 256.64 91.2614 256.35 90.8614 255.98C90.4614 255.61 90.1464 255.17 89.9164 254.66C89.6864 254.14 89.5714 253.575 89.5714 252.965C89.5714 252.375 89.6864 251.83 89.9164 251.33C90.1464 250.83 90.4614 250.4 90.8614 250.04C91.2614 249.68 91.7264 249.4 92.2564 249.2C92.7864 249 93.3464 248.9 93.9364 248.9ZM93.9364 249.77C93.6364 249.77 93.3614 249.85 93.1114 250.01C92.8614 250.16 92.6464 250.375 92.4664 250.655C92.2964 250.935 92.1614 251.275 92.0614 251.675C91.9714 252.065 91.9264 252.5 91.9264 252.98C91.9264 253.48 91.9714 253.93 92.0614 254.33C92.1614 254.73 92.2964 255.07 92.4664 255.35C92.6464 255.63 92.8564 255.85 93.0964 256.01C93.3464 256.16 93.6264 256.235 93.9364 256.235C94.2464 256.235 94.5264 256.16 94.7764 256.01C95.0364 255.85 95.2564 255.63 95.4364 255.35C95.6164 255.06 95.7564 254.715 95.8564 254.315C95.9564 253.915 96.0064 253.47 96.0064 252.98C96.0064 252.5 95.9564 252.065 95.8564 251.675C95.7564 251.285 95.6164 250.95 95.4364 250.67C95.2564 250.38 95.0364 250.16 94.7764 250.01C94.5264 249.85 94.2464 249.77 93.9364 249.77ZM103.974 254.555C103.974 254.965 103.984 255.29 104.004 255.53C104.034 255.76 104.089 255.94 104.169 256.07C104.259 256.19 104.389 256.27 104.559 256.31C104.739 256.35 104.979 256.38 105.279 256.4V257H100.554V256.4C100.844 256.38 101.074 256.35 101.244 256.31C101.424 256.27 101.559 256.19 101.649 256.07C101.749 255.95 101.814 255.78 101.844 255.56C101.874 255.34 101.889 255.04 101.889 254.66V252.785C101.889 252.195 101.879 251.72 101.859 251.36C101.839 250.99 101.814 250.74 101.784 250.61C101.754 250.48 101.714 250.375 101.664 250.295C101.614 250.205 101.539 250.14 101.439 250.1C101.339 250.05 101.214 250.02 101.064 250.01C100.914 249.99 100.724 249.98 100.494 249.98V249.47L103.389 248.9L103.584 250.22H103.644C103.974 249.8 104.364 249.475 104.814 249.245C105.264 249.015 105.759 248.9 106.299 248.9C106.939 248.9 107.454 248.99 107.844 249.17C108.244 249.34 108.599 249.63 108.909 250.04C109.079 250.27 109.229 250.57 109.359 250.94C109.489 251.3 109.554 251.8 109.554 252.44V254.555C109.554 254.965 109.564 255.29 109.584 255.53C109.614 255.76 109.669 255.94 109.749 256.07C109.839 256.19 109.969 256.27 110.139 256.31C110.309 256.35 110.539 256.38 110.829 256.4V257H106.134V256.4C106.434 256.39 106.669 256.365 106.839 256.325C107.019 256.275 107.154 256.19 107.244 256.07C107.334 255.95 107.394 255.78 107.424 255.56C107.454 255.33 107.469 255.03 107.469 254.66V252.62C107.469 252.11 107.439 251.68 107.379 251.33C107.319 250.98 107.219 250.7 107.079 250.49C106.949 250.27 106.774 250.115 106.554 250.025C106.334 249.925 106.059 249.875 105.729 249.875C105.409 249.875 105.134 249.965 104.904 250.145C104.674 250.325 104.474 250.575 104.304 250.895C104.214 251.075 104.134 251.31 104.064 251.6C104.004 251.88 103.974 252.175 103.974 252.485V254.555ZM112.592 249.875V249.2C113.192 249.03 113.692 248.775 114.092 248.435C114.502 248.085 114.807 247.685 115.007 247.235H115.772V249.05H117.497V249.875H115.772V254.48C115.772 255.1 115.837 255.54 115.967 255.8C116.107 256.06 116.337 256.19 116.657 256.19C117.047 256.19 117.342 256.01 117.542 255.65L117.857 256.085C117.577 256.795 116.917 257.15 115.877 257.15C115.187 257.15 114.647 256.99 114.257 256.67C113.877 256.35 113.687 255.9 113.687 255.32V249.875H112.592ZM124.305 252.725C123.465 253.105 122.83 253.46 122.4 253.79C121.98 254.11 121.77 254.445 121.77 254.795C121.77 255.085 121.85 255.315 122.01 255.485C122.17 255.655 122.37 255.74 122.61 255.74C122.85 255.74 123.075 255.7 123.285 255.62C123.495 255.53 123.675 255.415 123.825 255.275C123.975 255.135 124.09 254.97 124.17 254.78C124.26 254.58 124.305 254.37 124.305 254.15V252.725ZM124.305 251.93V251.3C124.305 250.72 124.2 250.3 123.99 250.04C123.79 249.77 123.475 249.635 123.045 249.635C122.755 249.635 122.535 249.715 122.385 249.875C122.235 250.025 122.095 250.28 121.965 250.64C121.875 250.89 121.745 251.085 121.575 251.225C121.415 251.365 121.19 251.435 120.9 251.435C120.62 251.435 120.405 251.35 120.255 251.18C120.105 251.01 120.03 250.77 120.03 250.46C120.03 249.98 120.29 249.6 120.81 249.32C121.34 249.04 122.135 248.9 123.195 248.9C124.315 248.9 125.115 249.105 125.595 249.515C126.075 249.915 126.315 250.59 126.315 251.54V254.825C126.315 255.675 126.485 256.1 126.825 256.1C127.015 256.1 127.19 256.035 127.35 255.905L127.575 256.34C127.435 256.59 127.215 256.79 126.915 256.94C126.625 257.08 126.295 257.15 125.925 257.15C125.465 257.15 125.115 257.01 124.875 256.73C124.635 256.45 124.515 256.055 124.515 255.545H124.44C124.15 256.065 123.775 256.46 123.315 256.73C122.855 257 122.33 257.135 121.74 257.135C121.11 257.135 120.605 256.96 120.225 256.61C119.845 256.25 119.655 255.785 119.655 255.215C119.655 254.775 119.85 254.365 120.24 253.985C120.63 253.595 121.28 253.215 122.19 252.845L124.305 251.93ZM132.813 254.555C132.813 254.965 132.823 255.29 132.843 255.53C132.873 255.76 132.928 255.94 133.008 256.07C133.098 256.19 133.228 256.27 133.398 256.31C133.578 256.35 133.818 256.38 134.118 256.4V257H129.393V256.4C129.683 256.38 129.913 256.35 130.083 256.31C130.263 256.27 130.398 256.19 130.488 256.07C130.588 255.95 130.653 255.78 130.683 255.56C130.713 255.34 130.728 255.04 130.728 254.66V252.785C130.728 252.195 130.718 251.72 130.698 251.36C130.678 250.99 130.653 250.74 130.623 250.61C130.593 250.48 130.553 250.375 130.503 250.295C130.453 250.205 130.378 250.14 130.278 250.1C130.178 250.05 130.053 250.02 129.903 250.01C129.753 249.99 129.563 249.98 129.333 249.98V249.47L132.228 248.9L132.423 250.22H132.483C132.813 249.8 133.203 249.475 133.653 249.245C134.103 249.015 134.598 248.9 135.138 248.9C135.778 248.9 136.293 248.99 136.683 249.17C137.083 249.34 137.438 249.63 137.748 250.04C137.918 250.27 138.068 250.57 138.198 250.94C138.328 251.3 138.393 251.8 138.393 252.44V254.555C138.393 254.965 138.403 255.29 138.423 255.53C138.453 255.76 138.508 255.94 138.588 256.07C138.678 256.19 138.808 256.27 138.978 256.31C139.148 256.35 139.378 256.38 139.668 256.4V257H134.973V256.4C135.273 256.39 135.508 256.365 135.678 256.325C135.858 256.275 135.993 256.19 136.083 256.07C136.173 255.95 136.233 255.78 136.263 255.56C136.293 255.33 136.308 255.03 136.308 254.66V252.62C136.308 252.11 136.278 251.68 136.218 251.33C136.158 250.98 136.058 250.7 135.918 250.49C135.788 250.27 135.613 250.115 135.393 250.025C135.173 249.925 134.898 249.875 134.568 249.875C134.248 249.875 133.973 249.965 133.743 250.145C133.513 250.325 133.313 250.575 133.143 250.895C133.053 251.075 132.973 251.31 132.903 251.6C132.843 251.88 132.813 252.175 132.813 252.485V254.555ZM146.216 252.725C145.376 253.105 144.741 253.46 144.311 253.79C143.891 254.11 143.681 254.445 143.681 254.795C143.681 255.085 143.761 255.315 143.921 255.485C144.081 255.655 144.281 255.74 144.521 255.74C144.761 255.74 144.986 255.7 145.196 255.62C145.406 255.53 145.586 255.415 145.736 255.275C145.886 255.135 146.001 254.97 146.081 254.78C146.171 254.58 146.216 254.37 146.216 254.15V252.725ZM146.216 251.93V251.3C146.216 250.72 146.111 250.3 145.901 250.04C145.701 249.77 145.386 249.635 144.956 249.635C144.666 249.635 144.446 249.715 144.296 249.875C144.146 250.025 144.006 250.28 143.876 250.64C143.786 250.89 143.656 251.085 143.486 251.225C143.326 251.365 143.101 251.435 142.811 251.435C142.531 251.435 142.316 251.35 142.166 251.18C142.016 251.01 141.941 250.77 141.941 250.46C141.941 249.98 142.201 249.6 142.721 249.32C143.251 249.04 144.046 248.9 145.106 248.9C146.226 248.9 147.026 249.105 147.506 249.515C147.986 249.915 148.226 250.59 148.226 251.54V254.825C148.226 255.675 148.396 256.1 148.736 256.1C148.926 256.1 149.101 256.035 149.261 255.905L149.486 256.34C149.346 256.59 149.126 256.79 148.826 256.94C148.536 257.08 148.206 257.15 147.836 257.15C147.376 257.15 147.026 257.01 146.786 256.73C146.546 256.45 146.426 256.055 146.426 255.545H146.351C146.061 256.065 145.686 256.46 145.226 256.73C144.766 257 144.241 257.135 143.651 257.135C143.021 257.135 142.516 256.96 142.136 256.61C141.756 256.25 141.566 255.785 141.566 255.215C141.566 254.775 141.761 254.365 142.151 253.985C142.541 253.595 143.191 253.215 144.101 252.845L146.216 251.93ZM156.549 257V256.4C156.889 256.39 157.159 256.36 157.359 256.31C157.569 256.26 157.729 256.175 157.839 256.055C157.959 255.935 158.039 255.765 158.079 255.545C158.119 255.325 158.139 255.04 158.139 254.69V247.76C158.139 247.41 158.124 247.13 158.094 246.92C158.064 246.7 157.999 246.53 157.899 246.41C157.809 246.28 157.679 246.195 157.509 246.155C157.349 246.105 157.134 246.07 156.864 246.05V245.45H161.679C163.189 245.45 164.349 245.695 165.159 246.185C165.979 246.665 166.389 247.355 166.389 248.255C166.389 249.445 165.534 250.285 163.824 250.775V250.835C164.374 250.835 164.869 250.915 165.309 251.075C165.759 251.225 166.139 251.44 166.449 251.72C166.759 252 166.999 252.33 167.169 252.71C167.339 253.09 167.424 253.505 167.424 253.955C167.424 254.465 167.299 254.91 167.049 255.29C166.809 255.67 166.459 255.99 165.999 256.25C165.109 256.75 163.884 257 162.324 257H156.549ZM162.429 256.085C164.039 256.085 164.844 255.36 164.844 253.91C164.844 253.02 164.554 252.37 163.974 251.96C163.674 251.75 163.284 251.6 162.804 251.51C162.334 251.42 161.754 251.375 161.064 251.375H160.344V254.375C160.344 254.995 160.504 255.435 160.824 255.695C161.144 255.955 161.679 256.085 162.429 256.085ZM161.229 250.475C161.679 250.475 162.069 250.435 162.399 250.355C162.729 250.265 163.009 250.14 163.239 249.98C163.719 249.65 163.959 249.135 163.959 248.435C163.959 247.705 163.779 247.18 163.419 246.86C163.059 246.53 162.479 246.365 161.679 246.365H160.614C160.434 246.365 160.344 246.45 160.344 246.62V250.475H161.229ZM174.127 248.9C174.727 248.9 175.292 249.005 175.822 249.215C176.362 249.415 176.832 249.695 177.232 250.055C177.642 250.415 177.962 250.845 178.192 251.345C178.432 251.835 178.552 252.375 178.552 252.965C178.552 253.575 178.432 254.135 178.192 254.645C177.962 255.155 177.642 255.595 177.232 255.965C176.832 256.335 176.362 256.625 175.822 256.835C175.292 257.045 174.727 257.15 174.127 257.15C173.537 257.15 172.977 257.05 172.447 256.85C171.917 256.64 171.452 256.35 171.052 255.98C170.652 255.61 170.337 255.17 170.107 254.66C169.877 254.14 169.762 253.575 169.762 252.965C169.762 252.375 169.877 251.83 170.107 251.33C170.337 250.83 170.652 250.4 171.052 250.04C171.452 249.68 171.917 249.4 172.447 249.2C172.977 249 173.537 248.9 174.127 248.9ZM174.127 249.77C173.827 249.77 173.552 249.85 173.302 250.01C173.052 250.16 172.837 250.375 172.657 250.655C172.487 250.935 172.352 251.275 172.252 251.675C172.162 252.065 172.117 252.5 172.117 252.98C172.117 253.48 172.162 253.93 172.252 254.33C172.352 254.73 172.487 255.07 172.657 255.35C172.837 255.63 173.047 255.85 173.287 256.01C173.537 256.16 173.817 256.235 174.127 256.235C174.437 256.235 174.717 256.16 174.967 256.01C175.227 255.85 175.447 255.63 175.627 255.35C175.807 255.06 175.947 254.715 176.047 254.315C176.147 253.915 176.197 253.47 176.197 252.98C176.197 252.5 176.147 252.065 176.047 251.675C175.947 251.285 175.807 250.95 175.627 250.67C175.447 250.38 175.227 250.16 174.967 250.01C174.717 249.85 174.437 249.77 174.127 249.77ZM184.18 254.675C184.18 255.065 184.195 255.375 184.225 255.605C184.265 255.825 184.34 255.995 184.45 256.115C184.56 256.235 184.72 256.315 184.93 256.355C185.14 256.385 185.42 256.4 185.77 256.4V257H180.76V256.4C181.06 256.38 181.3 256.35 181.48 256.31C181.66 256.27 181.795 256.19 181.885 256.07C181.975 255.95 182.03 255.78 182.05 255.56C182.08 255.33 182.095 255.025 182.095 254.645V252.815C182.095 252.195 182.08 251.7 182.05 251.33C182.02 250.96 181.955 250.675 181.855 250.475C181.755 250.275 181.61 250.145 181.42 250.085C181.24 250.015 181 249.98 180.7 249.98V249.455L183.7 248.9L183.94 250.625H184C184.27 250.095 184.625 249.675 185.065 249.365C185.505 249.055 185.97 248.9 186.46 248.9C186.84 248.9 187.15 248.995 187.39 249.185C187.63 249.375 187.75 249.615 187.75 249.905C187.75 250.225 187.655 250.495 187.465 250.715C187.285 250.935 187.035 251.045 186.715 251.045C186.565 251.045 186.43 251.015 186.31 250.955C186.19 250.895 186.08 250.83 185.98 250.76C185.89 250.68 185.795 250.61 185.695 250.55C185.605 250.48 185.51 250.445 185.41 250.445C185.22 250.445 185.04 250.57 184.87 250.82C184.7 251.07 184.56 251.405 184.45 251.825C184.37 252.125 184.305 252.465 184.255 252.845C184.205 253.215 184.18 253.585 184.18 253.955V254.675ZM196.122 256.04H196.062C195.372 256.78 194.477 257.15 193.377 257.15C192.807 257.15 192.282 257.05 191.802 256.85C191.332 256.65 190.922 256.37 190.572 256.01C190.232 255.65 189.967 255.225 189.777 254.735C189.587 254.235 189.492 253.685 189.492 253.085C189.492 252.485 189.587 251.93 189.777 251.42C189.977 250.91 190.242 250.47 190.572 250.1C190.912 249.72 191.312 249.425 191.772 249.215C192.242 249.005 192.747 248.9 193.287 248.9C193.787 248.9 194.227 248.975 194.607 249.125C194.997 249.275 195.337 249.53 195.627 249.89H195.687V248.615C195.687 248.025 195.677 247.52 195.657 247.1C195.647 246.67 195.627 246.39 195.597 246.26C195.547 246.05 195.392 245.9 195.132 245.81C194.882 245.71 194.492 245.66 193.962 245.66V245.15L197.757 244.55V253.13C197.757 253.88 197.762 254.46 197.772 254.87C197.792 255.27 197.822 255.575 197.862 255.785C197.882 255.915 197.912 256.02 197.952 256.1C197.992 256.18 198.052 256.245 198.132 256.295C198.212 256.335 198.317 256.365 198.447 256.385C198.587 256.395 198.762 256.4 198.972 256.4V256.985L196.122 257.15V256.04ZM195.657 252.695C195.657 252.315 195.617 251.965 195.537 251.645C195.457 251.315 195.337 251.025 195.177 250.775C194.997 250.485 194.767 250.265 194.487 250.115C194.207 249.965 193.907 249.89 193.587 249.89C192.997 249.89 192.547 250.16 192.237 250.7C191.927 251.24 191.772 252.025 191.772 253.055C191.772 254.095 191.927 254.895 192.237 255.455C192.547 256.015 192.992 256.295 193.572 256.295C193.902 256.295 194.217 256.21 194.517 256.04C194.817 255.87 195.062 255.64 195.252 255.35C195.392 255.13 195.492 254.86 195.552 254.54C195.622 254.21 195.657 253.79 195.657 253.28V252.695ZM208.622 255.605C207.712 256.635 206.577 257.15 205.217 257.15C204.597 257.15 204.032 257.055 203.522 256.865C203.022 256.665 202.592 256.39 202.232 256.04C201.872 255.68 201.592 255.255 201.392 254.765C201.192 254.275 201.092 253.73 201.092 253.13C201.092 252.51 201.197 251.945 201.407 251.435C201.617 250.915 201.912 250.47 202.292 250.1C202.682 249.72 203.137 249.425 203.657 249.215C204.187 249.005 204.767 248.9 205.397 248.9C206.457 248.9 207.282 249.185 207.872 249.755C208.462 250.325 208.757 251.125 208.757 252.155C208.757 252.315 208.732 252.415 208.682 252.455C208.632 252.485 208.492 252.5 208.262 252.5H203.432C203.392 252.59 203.372 252.755 203.372 252.995C203.372 253.975 203.582 254.75 204.002 255.32C204.432 255.89 205.012 256.175 205.742 256.175C206.162 256.175 206.577 256.08 206.987 255.89C207.407 255.7 207.812 255.43 208.202 255.08L208.622 255.605ZM205.712 251.66C206.112 251.66 206.367 251.64 206.477 251.6C206.597 251.55 206.657 251.44 206.657 251.27C206.657 250.83 206.532 250.47 206.282 250.19C206.032 249.91 205.717 249.77 205.337 249.77C204.907 249.77 204.522 249.95 204.182 250.31C203.852 250.66 203.637 251.11 203.537 251.66H205.712ZM214.366 254.675C214.366 255.065 214.381 255.375 214.411 255.605C214.451 255.825 214.526 255.995 214.636 256.115C214.746 256.235 214.906 256.315 215.116 256.355C215.326 256.385 215.606 256.4 215.956 256.4V257H210.946V256.4C211.246 256.38 211.486 256.35 211.666 256.31C211.846 256.27 211.981 256.19 212.071 256.07C212.161 255.95 212.216 255.78 212.236 255.56C212.266 255.33 212.281 255.025 212.281 254.645V252.815C212.281 252.195 212.266 251.7 212.236 251.33C212.206 250.96 212.141 250.675 212.041 250.475C211.941 250.275 211.796 250.145 211.606 250.085C211.426 250.015 211.186 249.98 210.886 249.98V249.455L213.886 248.9L214.126 250.625H214.186C214.456 250.095 214.811 249.675 215.251 249.365C215.691 249.055 216.156 248.9 216.646 248.9C217.026 248.9 217.336 248.995 217.576 249.185C217.816 249.375 217.936 249.615 217.936 249.905C217.936 250.225 217.841 250.495 217.651 250.715C217.471 250.935 217.221 251.045 216.901 251.045C216.751 251.045 216.616 251.015 216.496 250.955C216.376 250.895 216.266 250.83 216.166 250.76C216.076 250.68 215.981 250.61 215.881 250.55C215.791 250.48 215.696 250.445 215.596 250.445C215.406 250.445 215.226 250.57 215.056 250.82C214.886 251.07 214.746 251.405 214.636 251.825C214.556 252.125 214.491 252.465 214.441 252.845C214.391 253.215 214.366 253.585 214.366 253.955V254.675Z" fill="#654736"/>
</svg>
